<svg width="37" height="36" viewBox="0 0 37 36" fill="none" xmlns="http://www.w3.org/2000/svg">
<path d="M24.7133 4.7423C25.2991 4.15651 26.2488 4.15651 26.8346 4.7423L31.0772 8.98494C31.663 9.57073 31.663 10.5205 31.0772 11.1063L15.1673 27.0162L8.80336 20.6522L24.7133 4.7423Z" stroke="white" stroke-width="3" stroke-linejoin="round"/>
<path d="M24.7133 4.7423C25.2991 4.15651 26.2488 4.15651 26.8346 4.7423L31.0772 8.98494C31.663 9.57073 31.663 10.5205 31.0772 11.1063L15.1673 27.0162L8.80336 20.6522L24.7133 4.7423Z" stroke="#CCCCCC" stroke-width="3" stroke-linejoin="round"/>
<path d="M22.5918 6.86328L28.9558 13.2272" stroke="white" stroke-width="3" stroke-linecap="round" stroke-linejoin="round"/>
<path d="M22.5918 6.86328L28.9558 13.2272" stroke="#CCCCCC" stroke-width="3" stroke-linecap="round" stroke-linejoin="round"/>
<path d="M15.1672 27.0163L8.80322 20.6523L6.6819 29.1376L15.1672 27.0163Z" stroke="white" stroke-width="3" stroke-linecap="round" stroke-linejoin="round"/>
<path d="M15.1672 27.0163L8.80322 20.6523L6.6819 29.1376L15.1672 27.0163Z" stroke="#CCCCCC" stroke-width="3" stroke-linecap="round" stroke-linejoin="round"/>
</svg>
