<svg width="24" height="24" viewBox="0 0 24 24" fill="none" xmlns="http://www.w3.org/2000/svg">
<path d="M19 9C19 12.5769 15.5759 18.0952 12.6878 21.2766C12.3166 21.6855 11.6834 21.6855 11.3122 21.2766C8.42405 18.0952 5 12.5769 5 9C5 5.13401 8.13401 2 12 2C15.866 2 19 5.13401 19 9Z" fill="white"/>
<path d="M19 9C19 12.5769 15.5759 18.0952 12.6878 21.2766C12.3166 21.6855 11.6834 21.6855 11.3122 21.2766C8.42405 18.0952 5 12.5769 5 9C5 5.13401 8.13401 2 12 2C15.866 2 19 5.13401 19 9Z" fill="#E4E4E4"/>
<path d="M19 9C19 12.5769 15.5759 18.0952 12.6878 21.2766C12.3166 21.6855 11.6834 21.6855 11.3122 21.2766C8.42405 18.0952 5 12.5769 5 9C5 5.13401 8.13401 2 12 2C15.866 2 19 5.13401 19 9Z" stroke="white" stroke-width="2" stroke-linejoin="round"/>
<path d="M19 9C19 12.5769 15.5759 18.0952 12.6878 21.2766C12.3166 21.6855 11.6834 21.6855 11.3122 21.2766C8.42405 18.0952 5 12.5769 5 9C5 5.13401 8.13401 2 12 2C15.866 2 19 5.13401 19 9Z" stroke="#CCCCCC" stroke-width="2" stroke-linejoin="round"/>
</svg>
