<svg width="1920" height="1080" viewBox="0 0 1920 1080" fill="none" xmlns="http://www.w3.org/2000/svg">
<g clip-path="url(#clip0_1116_10648)">
<rect width="1920" height="1080" fill="#FFE7D6"/>
<circle cx="960" cy="586" r="730" fill="#FF8732"/>
<path fill-rule="evenodd" clip-rule="evenodd" d="M168.67 91.232C169.822 83.312 169.822 77.912 168.742 70.496C168.022 64.592 171.766 62 177.598 62C182.638 62 186.166 64.232 186.814 69.056C188.11 77.192 188.11 84.032 186.814 92.168C186.166 96.992 182.638 99.224 177.598 99.224C171.766 99.224 168.022 96.632 168.67 91.232ZM126.478 80.792C126.478 70.208 130.942 62.216 146.638 62.216C162.334 62.216 166.87 70.208 166.87 80.792C166.87 91.016 161.542 98.72 146.638 98.72C131.662 98.72 126.478 91.016 126.478 80.792ZM154.198 106.928C156.79 106.64 158.734 106.64 161.182 106.928V105.056C161.182 98.432 184.582 98.072 186.67 105.992C187.894 111.032 188.11 116.792 186.67 121.472C185.59 125 181.63 127.088 175.582 127.592C163.918 128.6 151.534 128.672 139.798 127.592C133.822 127.16 129.934 125 128.782 121.472C127.486 116.792 127.558 111.032 128.782 105.992C130.87 98.072 154.198 98.432 154.198 105.056V106.928Z" fill="white"/>
<path fill-rule="evenodd" clip-rule="evenodd" d="M169.722 62.9079C171.685 61.1807 174.505 60.5 177.598 60.5C180.322 60.5 182.808 61.1015 184.737 62.5068C186.696 63.9352 187.924 66.0815 188.298 68.8377C189.615 77.1164 189.615 84.1076 188.298 92.3864C187.924 95.1425 186.696 97.2888 184.737 98.7172C183.936 99.301 183.038 99.7461 182.068 100.067C182.164 100.103 182.26 100.139 182.355 100.177C184.997 101.214 187.414 102.931 188.12 105.61C188.123 105.619 188.125 105.629 188.128 105.638C189.394 110.853 189.646 116.9 188.104 121.911C186.735 126.382 181.881 128.572 175.709 129.087C163.97 130.101 151.503 130.174 139.675 129.087C133.517 128.639 128.799 126.357 127.356 121.938C127.349 121.916 127.342 121.894 127.336 121.872C125.962 116.909 126.05 110.886 127.324 105.638C127.327 105.629 127.329 105.619 127.332 105.61C128.037 102.933 130.448 101.215 133.085 100.177C134.406 99.6572 135.873 99.2698 137.399 99.0056C134.289 98.0623 131.797 96.5876 129.875 94.6446C126.335 91.0639 124.978 86.1395 124.978 80.792C124.978 75.325 126.126 70.2334 129.572 66.5154C133.037 62.7765 138.554 60.716 146.638 60.716C154.722 60.716 160.255 62.7765 163.737 66.5122C165.796 68.7207 167.044 71.4148 167.718 74.3857C167.597 73.207 167.444 71.9907 167.258 70.7122C167.256 70.7007 167.254 70.6891 167.253 70.6776C166.849 67.3674 167.685 64.7006 169.722 62.9079ZM167.727 86.6425C167 89.6851 165.621 92.4269 163.405 94.6492C160.59 97.4725 156.572 99.3081 151.223 99.9574C153.474 100.847 155.698 102.444 155.698 105.056V105.285C157.082 105.19 158.343 105.188 159.682 105.28V105.056C159.682 102.375 162.028 100.765 164.341 99.8909C166 99.2638 167.995 98.8638 170.095 98.682C169.975 98.5927 169.857 98.5001 169.742 98.4043C167.7 96.6984 166.808 94.1614 167.181 91.0533C167.182 91.0409 167.184 91.0285 167.186 91.0161C167.41 89.4704 167.591 88.0244 167.727 86.6425ZM170.229 70.2976C171.327 77.8474 171.326 83.3878 170.157 91.4286C169.888 93.7102 170.543 95.1641 171.666 96.1017C172.873 97.1099 174.863 97.724 177.598 97.724C179.914 97.724 181.712 97.2095 182.97 96.2928C184.191 95.4024 185.051 94.0272 185.327 91.9683C185.329 91.9562 185.331 91.9441 185.333 91.932C186.604 83.9524 186.604 77.2716 185.333 69.292C185.331 69.2799 185.329 69.2678 185.327 69.2557C185.051 67.1968 184.191 65.8216 182.97 64.9312C181.712 64.0145 179.914 63.5 177.598 63.5C174.859 63.5 172.891 64.1153 171.704 65.1601C170.593 66.1373 169.918 67.7137 170.229 70.2976ZM131.772 68.5546C129.062 71.4786 127.978 75.675 127.978 80.792C127.978 85.6685 129.213 89.7081 132.009 92.5354C134.8 95.3588 139.393 97.22 146.638 97.22C153.845 97.22 158.46 95.3598 161.281 92.5308C164.104 89.6999 165.37 85.6588 165.37 80.792C165.37 75.6799 164.27 71.4833 161.543 68.5578C158.833 65.6515 154.25 63.716 146.638 63.716C139.026 63.716 134.463 65.6515 131.772 68.5546ZM165.401 102.697C163.261 103.506 162.682 104.425 162.682 105.056V106.928C162.682 107.356 162.499 107.764 162.179 108.049C161.859 108.334 161.432 108.468 161.007 108.418C158.678 108.144 156.849 108.143 154.364 108.419C153.94 108.466 153.516 108.33 153.198 108.046C152.88 107.761 152.698 107.355 152.698 106.928V105.056C152.698 104.422 152.119 103.504 149.989 102.697C147.997 101.942 145.216 101.535 142.291 101.57C139.371 101.604 136.45 102.077 134.184 102.969C131.866 103.881 130.579 105.083 130.236 106.362C129.069 111.177 129.012 116.651 130.218 121.037C131.092 123.656 134.142 125.679 139.906 126.096C139.916 126.097 139.926 126.097 139.935 126.098C151.574 127.169 163.869 127.099 175.453 126.098L175.457 126.097C181.38 125.604 184.445 123.617 185.236 121.033L185.236 121.031C186.573 116.688 186.394 111.223 185.216 106.362C184.873 105.085 183.584 103.882 181.259 102.969C178.985 102.077 176.054 101.604 173.125 101.57C170.191 101.535 167.4 101.942 165.401 102.697Z" fill="#FF8732"/>
<path fill-rule="evenodd" clip-rule="evenodd" d="M82.016 106.064V107.432C78.4408 107.226 74.8656 106.888 71.2277 106.545L70.712 106.496C65.24 105.848 62 110.24 62 115.64C62 122.336 65.24 125.648 70.712 126.224C86.768 127.88 101.672 127.88 117.728 126.224C123.344 125.648 126.512 122.336 126.512 115.64C126.512 110.24 123.344 105.848 117.8 106.496C113.912 106.928 110.168 107.216 106.424 107.432V106.064C106.424 105.766 106.405 105.488 106.386 105.219C106.369 104.967 106.352 104.724 106.352 104.48C110.168 104.192 113.912 103.76 117.44 103.184C121.256 102.536 122.624 100.52 123.416 95.552C124.496 89.288 124.424 79.928 123.632 74.24C122.984 69.128 121.256 67.472 117.44 66.608C103.4 63.296 85.112 63.296 71.072 66.608C67.328 67.472 65.528 69.128 64.808 74.24C64.088 79.928 64.016 89.288 65.024 95.552C65.888 100.52 67.328 102.536 71.072 103.184C74.528 103.76 78.272 104.192 82.088 104.48C82.088 104.724 82.0712 104.967 82.0538 105.219C82.0352 105.488 82.016 105.766 82.016 106.064Z" fill="white"/>
<path fill-rule="evenodd" clip-rule="evenodd" d="M117.096 68.068C103.282 64.8094 85.2299 64.8094 71.4164 68.068L71.4093 68.0696C69.6779 68.4692 68.6486 68.9968 67.9387 69.8144C67.2089 70.6549 66.6384 72.0069 66.2948 74.4389C65.5911 80.0086 65.5241 89.2084 66.5034 95.3044C66.9253 97.726 67.4518 99.1648 68.153 100.068C68.7934 100.893 69.7012 101.424 71.3232 101.705C74.7267 102.272 78.4237 102.699 82.2009 102.984C82.9833 103.043 83.588 103.695 83.588 104.48C83.588 104.776 83.5681 105.064 83.5516 105.302L83.5502 105.322L82.0538 105.219L82.0474 105.218M82.0538 105.219L83.5502 105.322C83.5313 105.597 83.516 105.826 83.516 106.064V107.432C83.516 107.845 83.3459 108.239 83.0457 108.523C82.7455 108.806 82.3417 108.953 81.9296 108.93C78.3268 108.722 74.7286 108.382 71.0998 108.039L70.571 107.989C70.5592 107.988 70.5474 107.987 70.5356 107.986C68.2795 107.718 66.5907 108.477 65.4284 109.793C64.2277 111.153 63.5 113.22 63.5 115.64C63.5 118.757 64.253 120.867 65.4412 122.249C66.6205 123.62 68.4 124.472 70.8683 124.732C86.8211 126.377 101.621 126.377 117.574 124.732L117.575 124.732C120.122 124.471 121.915 123.614 123.089 122.249C124.273 120.872 125.012 118.765 125.012 115.64C125.012 113.212 124.298 111.146 123.108 109.789C121.959 108.48 120.273 107.717 117.974 107.986L117.966 107.987C114.045 108.422 110.274 108.712 106.51 108.93C106.098 108.953 105.695 108.806 105.394 108.523C105.094 108.239 104.924 107.845 104.924 107.432V106.064C104.924 105.826 104.909 105.597 104.89 105.322L104.888 105.302C104.872 105.064 104.852 104.776 104.852 104.48C104.852 103.695 105.457 103.043 106.239 102.984C110.015 102.699 113.714 102.272 117.193 101.704C118.856 101.421 119.752 100.89 120.368 100.079C121.05 99.1836 121.546 97.7511 121.935 95.3159L121.938 95.2972C122.988 89.2079 122.92 80.0054 122.146 74.4469L122.144 74.4287C121.834 71.9817 121.292 70.6363 120.583 69.8043C119.896 68.9994 118.879 68.4717 117.109 68.071L117.096 68.068M117.778 65.1466C103.513 61.7829 84.995 61.7832 70.7311 65.1473C68.72 65.6118 66.9786 66.3442 65.6733 67.8476C64.3881 69.3279 63.6992 71.3573 63.3227 74.0308L63.3199 74.0517C62.5851 79.8562 62.5086 89.362 63.5431 95.7903L63.5462 95.809C63.9881 98.3498 64.6131 100.4 65.783 101.908C67.014 103.494 68.6971 104.295 70.8162 104.662L70.8254 104.664C73.4998 105.109 76.3381 105.469 79.2437 105.744C76.6458 105.55 74.0326 105.303 71.3687 105.051L70.8699 105.004C67.6622 104.63 65.0018 105.743 63.1796 107.807C61.3923 109.831 60.5 112.66 60.5 115.64C60.5 119.219 61.367 122.113 63.1668 124.205C64.9754 126.308 67.5516 127.4 70.555 127.716L70.5581 127.716C86.7164 129.383 101.724 129.383 117.882 127.716C120.95 127.401 123.55 126.314 125.363 124.205C127.167 122.108 128.012 119.211 128.012 115.64C128.012 112.668 127.142 109.839 125.362 107.811C123.542 105.737 120.874 104.628 117.631 105.006C114.619 105.34 111.691 105.588 108.778 105.783C111.832 105.504 114.824 105.131 117.682 104.664L117.691 104.663C119.842 104.298 121.537 103.497 122.756 101.897C123.908 100.382 124.492 98.326 124.896 95.7976C126.004 89.3624 125.927 79.8578 125.119 74.0423C124.781 71.3817 124.134 69.346 122.865 67.8578C121.573 66.3423 119.821 65.6099 117.778 65.1466Z" fill="#FF8732"/>
<path fill-rule="evenodd" clip-rule="evenodd" d="M102.848 85.7677C103.307 86.457 103.121 87.3883 102.432 87.8478C101.109 88.7296 97.636 90.4998 94.0998 90.4998C90.5327 90.4998 87.4316 88.7061 86.2627 87.7711C85.6158 87.2536 85.5109 86.3096 86.0285 85.6627C86.546 85.0158 87.4899 84.911 88.1368 85.4285C88.968 86.0934 91.4268 87.4998 94.0998 87.4998C96.8035 87.4998 99.6904 86.0699 100.768 85.3517C101.457 84.8922 102.388 85.0784 102.848 85.7677Z" fill="#FF8732"/>
<path fill-rule="evenodd" clip-rule="evenodd" d="M99.2661 85.1038C98.8402 84.6836 98.2612 84.39 97.3517 84.5402C96.9347 84.609 96.7841 84.7482 96.7186 84.8275C96.6347 84.9291 96.5438 85.1175 96.5116 85.4566C96.4429 86.1801 96.6868 87.1262 96.9819 87.7942C97.3166 88.552 96.9736 89.4377 96.2158 89.7724C95.458 90.1071 94.5724 89.7641 94.2377 89.0063C93.8339 88.0921 93.389 86.6055 93.525 85.1731C93.5951 84.4344 93.8299 83.6141 94.4055 82.9171C94.9995 82.1979 95.8423 81.7487 96.863 81.5802C98.8287 81.2557 100.346 81.9552 101.373 82.9682C102.343 83.9256 102.862 85.1369 103.061 85.9916C103.249 86.7984 102.747 87.6049 101.94 87.7929C101.133 87.9808 100.327 87.4791 100.139 86.6723C100.039 86.2415 99.7483 85.5796 99.2661 85.1038Z" fill="#FF8732"/>
<rect x="83" y="77" width="4.8" height="4.8" rx="2.4" fill="#FF8732"/>
<rect x="101" y="77" width="4.8" height="4.8" rx="2.4" fill="#FF8732"/>
<rect x="137.6" y="79.4004" width="4.8" height="4.8" rx="2.4" fill="#FF8732"/>
<rect x="153.2" y="79.4004" width="4.8" height="4.8" rx="2.4" fill="#FF8732"/>
<path fill-rule="evenodd" clip-rule="evenodd" d="M155.648 88.1681C156.108 88.8574 155.921 89.7887 155.232 90.2482C153.909 91.13 150.436 92.9002 146.9 92.9002C143.333 92.9002 140.232 91.1065 139.063 90.1715C138.416 89.6539 138.311 88.71 138.829 88.0631C139.346 87.4162 140.29 87.3113 140.937 87.8289C141.768 88.4938 144.227 89.9002 146.9 89.9002C149.604 89.9002 152.491 88.4703 153.568 87.7521C154.257 87.2926 155.189 87.4788 155.648 88.1681Z" fill="#FF8732"/>
<path fill-rule="evenodd" clip-rule="evenodd" d="M152.066 87.5032C151.64 87.083 151.061 86.7894 150.151 86.9396C149.735 87.0084 149.584 87.1476 149.518 87.227C149.434 87.3285 149.344 87.5169 149.311 87.8561C149.243 88.5795 149.487 89.5256 149.782 90.1936C150.116 90.9514 149.773 91.8371 149.016 92.1718C148.258 92.5065 147.372 92.1635 147.037 91.4057C146.634 90.4915 146.189 89.0049 146.325 87.5725C146.395 86.8338 146.63 86.0135 147.205 85.3165C147.799 84.5974 148.642 84.1481 149.663 83.9796C151.629 83.6551 153.146 84.3546 154.173 85.3676C155.143 86.325 155.662 87.5363 155.861 88.391C156.049 89.1979 155.547 90.0043 154.74 90.1923C153.933 90.3802 153.127 89.8786 152.939 89.0717C152.839 88.6409 152.548 87.979 152.066 87.5032Z" fill="#FF8732"/>
<path fill-rule="evenodd" clip-rule="evenodd" d="M166.448 113.968C166.907 114.657 166.721 115.589 166.032 116.048C164.709 116.93 161.236 118.7 157.7 118.7C154.133 118.7 151.032 116.906 149.863 115.971C149.216 115.454 149.111 114.51 149.629 113.863C150.146 113.216 151.09 113.111 151.737 113.629C152.568 114.294 155.027 115.7 157.7 115.7C160.404 115.7 163.29 114.27 164.368 113.552C165.057 113.092 165.988 113.279 166.448 113.968Z" fill="#FF8732"/>
<path fill-rule="evenodd" clip-rule="evenodd" d="M162.866 113.304C162.44 112.884 161.861 112.59 160.952 112.74C160.535 112.809 160.384 112.948 160.319 113.028C160.235 113.129 160.144 113.318 160.112 113.657C160.043 114.38 160.287 115.326 160.582 115.994C160.917 116.752 160.574 117.638 159.816 117.973C159.058 118.307 158.172 117.964 157.838 117.206C157.434 116.292 156.989 114.806 157.125 113.373C157.195 112.635 157.43 111.814 158.006 111.117C158.6 110.398 159.442 109.949 160.463 109.78C162.429 109.456 163.946 110.155 164.973 111.168C165.944 112.126 166.462 113.337 166.661 114.192C166.849 114.999 166.347 115.805 165.54 115.993C164.734 116.181 163.927 115.679 163.739 114.873C163.639 114.442 163.348 113.78 162.866 113.304Z" fill="#FF8732"/>
<rect x="146" y="105.2" width="4.8" height="4.8" rx="2.4" fill="#FF8732"/>
<rect x="164.6" y="105.2" width="4.8" height="4.8" rx="2.4" fill="#FF8732"/>
<circle opacity="0.2" cx="141.871" cy="953.603" r="100" transform="rotate(60 141.871 953.603)" fill="#FF8732"/>
<rect x="158.552" y="889.808" width="92.8125" height="92.8125" rx="46.4062" transform="rotate(60 158.552 889.808)" fill="white"/>
<rect x="158.552" y="889.808" width="92.8125" height="92.8125" rx="46.4062" transform="rotate(60 158.552 889.808)" stroke="#FF8732" stroke-width="6.1875"/>
<circle cx="141.566" cy="953.201" r="24.75" transform="rotate(60 141.566 953.201)" fill="#FF8732"/>
<path d="M222.811 906.294L201.376 943.419L179.942 906.294L222.811 906.294Z" fill="#FF8732"/>
<path d="M1848.75 106.25C1848.75 129.311 1825.98 165.283 1807.6 184.816C1806.18 186.324 1803.82 186.324 1802.4 184.816C1784.02 165.283 1761.25 129.311 1761.25 106.25C1761.25 82.0875 1780.84 62.5 1805 62.5C1829.16 62.5 1848.75 82.0875 1848.75 106.25Z" fill="#FF8732" stroke="#CC6C28" stroke-width="7.5" stroke-linejoin="round"/>
<circle cx="1805" cy="106.25" r="18.75" fill="white" stroke="#CC6C28" stroke-width="7.5"/>
<path d="M755.083 167.5C755.083 139.978 749.661 112.724 739.13 87.2964C728.596 61.8684 713.16 38.7642 693.698 19.3025C674.237 -0.159008 651.132 -15.5969 625.703 -26.1295C600.277 -36.6619 573.022 -42.083 545.5 -42.083V167.5H755.083Z" fill="#6F2F0F"/>
<path d="M545.5 377.083C573.022 377.083 600.277 371.661 625.703 361.13C651.132 350.596 674.237 335.16 693.698 315.698C713.16 296.237 728.596 273.132 739.13 247.703C749.661 222.277 755.083 195.022 755.083 167.5H545.5V377.083Z" fill="#EF7324"/>
<path d="M335.917 167.5C335.917 195.022 341.338 222.277 351.87 247.703C362.403 273.132 377.841 296.237 397.302 315.698C416.764 335.16 439.868 350.596 465.296 361.13C490.724 371.661 517.977 377.083 545.5 377.083V167.5H335.917Z" fill="#5FAA46"/>
<path d="M545.5 -42.083C517.977 -42.083 490.724 -36.6619 465.296 -26.1295C439.868 -15.5969 416.764 -0.159008 397.302 19.3025C377.841 38.7642 362.403 61.8684 351.87 87.2964C341.338 112.724 335.917 139.978 335.917 167.5H545.5V-42.083Z" fill="#FFCD71"/>
<path fill-rule="evenodd" clip-rule="evenodd" d="M545.5 -21.1253C441.326 -21.1253 356.875 63.325 356.875 167.5C356.875 271.675 441.326 356.125 545.5 356.125C649.676 356.125 734.125 271.675 734.125 167.5C734.125 63.325 649.676 -21.1253 545.5 -21.1253ZM314.958 167.5C314.958 40.1751 418.176 -63.042 545.5 -63.042C672.824 -63.042 776.042 40.1751 776.042 167.5C776.042 294.824 672.824 398.041 545.5 398.041C418.176 398.041 314.958 294.824 314.958 167.5Z" fill="black"/>
<path d="M545.5 272.291C603.375 272.291 650.292 225.375 650.292 167.5C650.292 109.625 603.375 62.708 545.5 62.708C487.625 62.708 440.708 109.625 440.708 167.5C440.708 225.375 487.625 272.291 545.5 272.291Z" fill="white"/>
<path d="M555.979 209.417C584.917 209.417 608.375 185.958 608.375 157.021C608.375 128.083 584.917 104.625 555.979 104.625C527.042 104.625 503.583 128.083 503.583 157.021C503.583 185.958 527.042 209.417 555.979 209.417Z" fill="#FFD700"/>
<g clip-path="url(#clip1_1116_10648)">
<path d="M231.495 640.523C251.414 638.694 270.02 628.547 283.221 612.317C296.422 596.086 303.137 575.101 301.888 553.977C300.639 532.853 291.528 513.321 276.561 499.678C261.593 486.035 241.994 479.398 222.076 481.227L231.495 640.523Z" fill="#FFDF87"/>
<path fill-rule="evenodd" clip-rule="evenodd" d="M212.67 483.304C233.483 481.95 254.129 488.621 270.075 501.869C286.025 515.121 295.991 533.892 297.714 554.082C299.437 574.277 292.766 594.18 279.192 609.404C265.624 624.621 246.292 633.896 225.477 635.251L221.626 635.501L208.66 483.565L212.67 483.304ZM217.199 491.011L228.807 627.041C246.137 624.997 261.996 616.857 273.314 604.163C285.459 590.541 291.405 572.771 289.867 554.752C288.329 536.727 279.423 519.873 265.043 507.926C251.684 496.827 234.637 490.829 217.199 491.011Z" fill="#F2C069"/>
<path fill-rule="evenodd" clip-rule="evenodd" d="M209.907 498.239C227.295 497.39 244.633 502.826 258.13 513.399C271.633 523.978 280.26 538.902 281.93 554.968C283.6 571.054 278.137 586.809 266.82 598.737C255.522 610.646 239.366 617.725 221.976 618.575L218.252 618.756L205.753 498.442L209.907 498.239ZM214.459 506.036L225.304 610.419C239.375 608.911 252.102 602.809 261.107 593.317C270.881 583.016 275.524 569.524 274.097 555.782C272.667 542.019 265.242 528.975 253.273 519.599C242.369 511.056 228.569 506.254 214.459 506.036Z" fill="#F2C069"/>
<path fill-rule="evenodd" clip-rule="evenodd" d="M222.388 516.118C233.464 515.1 244.353 518.798 252.643 526.354C260.922 533.901 265.902 544.645 266.585 556.181C267.266 567.714 263.606 579.179 256.375 588.068C249.141 596.963 238.885 602.591 227.818 603.607L223.768 603.98L218.593 516.466L222.388 516.118ZM226.917 523.841L231.133 595.132C238.457 593.499 245.216 589.308 250.266 583.099C256.237 575.758 259.291 566.237 258.724 556.646C258.157 547.058 254.026 538.27 247.338 532.174C241.622 526.964 234.418 524.06 226.917 523.841Z" fill="#F2C069"/>
<path d="M238.058 481.472C226.873 479.356 215.362 479.691 204.319 482.453C193.275 485.214 182.962 490.337 174.089 497.468C165.216 504.6 157.995 513.57 152.923 523.761C147.851 533.952 145.048 545.121 144.708 556.5C144.369 567.879 146.5 579.195 150.955 589.67C155.41 600.146 162.083 609.531 170.515 617.179C178.946 624.827 188.936 630.556 199.795 633.972C210.654 637.387 222.124 638.408 233.416 636.964L223.423 558.85L238.058 481.472Z" fill="#6F2F0F"/>
<path fill-rule="evenodd" clip-rule="evenodd" d="M239.587 489.775C201.126 482.501 164.05 507.783 156.776 546.244C149.501 584.706 174.783 621.782 213.244 629.056C251.706 636.33 288.782 611.049 296.056 572.587C303.331 534.126 278.049 497.05 239.587 489.775ZM141.3 543.317C150.191 496.309 195.506 465.409 242.514 474.3C289.522 483.191 320.423 528.506 311.532 575.514C302.641 622.522 257.325 653.423 210.317 644.532C163.309 635.641 132.409 590.325 141.3 543.317Z" fill="#D71A1A"/>
<path d="M219.098 598.105C240.466 602.146 261.064 588.101 265.105 566.733C269.146 545.366 255.101 524.768 233.734 520.727C212.366 516.685 191.768 530.731 187.727 552.098C183.686 573.466 197.731 594.063 219.098 598.105Z" fill="white"/>
<path d="M227.358 575.623C238.041 577.644 248.34 570.621 250.361 559.937C252.382 549.254 245.359 538.955 234.675 536.934C223.991 534.913 213.692 541.936 211.672 552.62C209.651 563.304 216.674 573.603 227.358 575.623Z" fill="#FFD700"/>
</g>
<g clip-path="url(#clip2_1116_10648)">
<path d="M653.572 868.568C632.548 947.031 551.896 993.596 473.432 972.572C394.968 951.547 348.404 870.895 369.429 792.432C390.453 713.968 471.104 667.404 549.568 688.428C628.031 709.452 674.596 790.104 653.572 868.568Z" fill="white"/>
<path fill-rule="evenodd" clip-rule="evenodd" d="M545.761 702.635C475.144 683.713 402.558 725.621 383.636 796.238C364.714 866.856 406.621 939.442 477.239 958.364C547.857 977.286 620.443 935.378 639.365 864.76C658.286 794.143 616.379 721.557 545.761 702.635ZM355.221 788.624C378.348 702.314 467.065 651.094 553.375 674.22C639.685 697.347 690.906 786.064 667.779 872.374C644.652 958.684 555.935 1009.9 469.625 986.778C383.315 963.651 332.095 874.934 355.221 788.624Z" fill="#FFD700"/>
<path d="M594.466 776.594L566.052 768.981C550.359 764.776 534.229 774.089 530.024 789.782L507.183 875.024C502.978 890.717 512.291 906.848 527.984 911.052L556.398 918.666C572.091 922.871 588.221 913.558 592.426 897.865L615.267 812.622C619.472 796.929 610.159 780.799 594.466 776.594Z" fill="#FF8E20"/>
<mask id="mask0_1116_10648" style="mask-type:alpha" maskUnits="userSpaceOnUse" x="506" y="767" width="111" height="153">
<path d="M594.466 776.594L566.052 768.981C550.359 764.776 534.229 774.089 530.024 789.782L507.183 875.024C502.978 890.717 512.291 906.848 527.984 911.052L556.398 918.666C572.091 922.871 588.221 913.558 592.426 897.865L615.267 812.622C619.472 796.929 610.159 780.799 594.466 776.594Z" fill="#FC9B3C"/>
</mask>
<g mask="url(#mask0_1116_10648)">
<path fill-rule="evenodd" clip-rule="evenodd" d="M638.562 795.219L509.678 821.593L506.729 807.183L635.614 780.809L638.562 795.219Z" fill="#FFDEBD"/>
<path fill-rule="evenodd" clip-rule="evenodd" d="M627.142 837.84L498.257 864.214L495.309 849.804L624.193 823.43L627.142 837.84Z" fill="#FFDEBD"/>
<path fill-rule="evenodd" clip-rule="evenodd" d="M615.721 880.462L486.837 906.836L483.889 892.425L612.773 866.051L615.721 880.462Z" fill="#FFDEBD"/>
</g>
<path d="M495.016 749.947L466.602 742.333C450.909 738.128 434.779 747.441 430.574 763.134L407.733 848.377C403.528 864.07 412.841 880.2 428.534 884.405L456.948 892.019C472.641 896.223 488.771 886.911 492.976 871.218L515.817 785.975C520.022 770.282 510.709 754.152 495.016 749.947Z" fill="#FF766D"/>
<mask id="mask1_1116_10648" style="mask-type:alpha" maskUnits="userSpaceOnUse" x="406" y="741" width="111" height="153">
<path d="M495.016 749.947L466.602 742.333C450.909 738.128 434.779 747.441 430.574 763.134L407.733 848.377C403.528 864.07 412.841 880.2 428.534 884.405L456.948 892.019C472.641 896.223 488.771 886.911 492.976 871.218L515.817 785.975C520.022 770.282 510.709 754.152 495.016 749.947Z" fill="#FC9B3C"/>
</mask>
<g mask="url(#mask1_1116_10648)">
<path fill-rule="evenodd" clip-rule="evenodd" d="M539.112 768.571L410.227 794.946L407.279 780.535L536.164 754.162L539.112 768.571Z" fill="#FFD7D4"/>
<path fill-rule="evenodd" clip-rule="evenodd" d="M527.692 811.193L398.807 837.567L395.858 823.156L524.743 796.783L527.692 811.193Z" fill="#FFD7D4"/>
<path fill-rule="evenodd" clip-rule="evenodd" d="M516.271 853.814L387.386 880.189L384.438 865.778L513.323 839.404L516.271 853.814Z" fill="#FFD7D4"/>
</g>
</g>
<path d="M1479.92 912.5C1479.92 1023.19 1390.19 1112.92 1279.5 1112.92C1168.81 1112.92 1079.08 1023.19 1079.08 912.5C1079.08 801.813 1168.81 712.083 1279.5 712.083C1390.19 712.083 1479.92 801.813 1479.92 912.5Z" fill="#FFCD71"/>
<path fill-rule="evenodd" clip-rule="evenodd" d="M1279.5 732.125C1179.88 732.125 1099.12 812.882 1099.12 912.5C1099.12 1012.12 1179.88 1092.88 1279.5 1092.88C1379.12 1092.88 1459.87 1012.12 1459.87 912.5C1459.87 812.882 1379.12 732.125 1279.5 732.125ZM1059.04 912.5C1059.04 790.745 1157.74 692.042 1279.5 692.042C1401.25 692.042 1499.96 790.745 1499.96 912.5C1499.96 1034.26 1401.25 1132.96 1279.5 1132.96C1157.74 1132.96 1059.04 1034.26 1059.04 912.5Z" fill="#D26517"/>
<path d="M1339.62 852.375C1361.76 852.375 1379.71 834.429 1379.71 812.291C1379.71 790.154 1361.76 772.208 1339.62 772.208C1317.49 772.208 1299.54 790.154 1299.54 812.291C1299.54 834.429 1317.49 852.375 1339.62 852.375Z" fill="#D71A1A"/>
<path d="M1299.54 952.584C1321.68 952.584 1339.63 934.638 1339.63 912.5C1339.63 890.363 1321.68 872.417 1299.54 872.417C1277.4 872.417 1259.46 890.363 1259.46 912.5C1259.46 934.638 1277.4 952.584 1299.54 952.584Z" fill="#D71A1A"/>
<path d="M1399.75 1012.71C1421.89 1012.71 1439.83 994.763 1439.83 972.625C1439.83 950.488 1421.89 932.542 1399.75 932.542C1377.61 932.542 1359.67 950.488 1359.67 972.625C1359.67 994.763 1377.61 1012.71 1399.75 1012.71Z" fill="#D71A1A"/>
<path d="M1239.42 1072.83C1261.55 1072.83 1279.5 1054.89 1279.5 1032.75C1279.5 1010.61 1261.55 992.667 1239.42 992.667C1217.28 992.667 1199.33 1010.61 1199.33 1032.75C1199.33 1054.89 1217.28 1072.83 1239.42 1072.83Z" fill="#D71A1A"/>
<path d="M1159.25 972.625C1181.39 972.625 1199.33 954.679 1199.33 932.541C1199.33 910.404 1181.39 892.458 1159.25 892.458C1137.11 892.458 1119.17 910.404 1119.17 932.541C1119.17 954.679 1137.11 972.625 1159.25 972.625Z" fill="#D71A1A"/>
<path d="M1199.33 852.375C1221.47 852.375 1239.42 834.429 1239.42 812.291C1239.42 790.154 1221.47 772.208 1199.33 772.208C1177.2 772.208 1159.25 790.154 1159.25 812.291C1159.25 834.429 1177.2 852.375 1199.33 852.375Z" fill="#D71A1A"/>
<path d="M1369.69 912.5C1375.22 912.5 1379.71 908.013 1379.71 902.479C1379.71 896.944 1375.22 892.458 1369.69 892.458C1364.15 892.458 1359.67 896.944 1359.67 902.479C1359.67 908.013 1364.15 912.5 1369.69 912.5Z" fill="black"/>
<path d="M1269.48 852.375C1275.01 852.375 1279.5 847.888 1279.5 842.354C1279.5 836.819 1275.01 832.333 1269.48 832.333C1263.94 832.333 1259.46 836.819 1259.46 842.354C1259.46 847.888 1263.94 852.375 1269.48 852.375Z" fill="black"/>
<path d="M1149.23 872.417C1154.76 872.417 1159.25 867.93 1159.25 862.396C1159.25 856.861 1154.76 852.375 1149.23 852.375C1143.69 852.375 1139.21 856.861 1139.21 862.396C1139.21 867.93 1143.69 872.417 1149.23 872.417Z" fill="black"/>
<path d="M1229.4 972.625C1234.93 972.625 1239.42 968.138 1239.42 962.604C1239.42 957.069 1234.93 952.583 1229.4 952.583C1223.86 952.583 1219.38 957.069 1219.38 962.604C1219.38 968.138 1223.86 972.625 1229.4 972.625Z" fill="black"/>
<path d="M1149.23 1012.71C1154.76 1012.71 1159.25 1008.22 1159.25 1002.69C1159.25 997.153 1154.76 992.667 1149.23 992.667C1143.69 992.667 1139.21 997.153 1139.21 1002.69C1139.21 1008.22 1143.69 1012.71 1149.23 1012.71Z" fill="black"/>
<path d="M1309.56 1072.83C1315.1 1072.83 1319.58 1068.35 1319.58 1062.81C1319.58 1057.28 1315.1 1052.79 1309.56 1052.79C1304.03 1052.79 1299.54 1057.28 1299.54 1062.81C1299.54 1068.35 1304.03 1072.83 1309.56 1072.83Z" fill="black"/>
<path fill-rule="evenodd" clip-rule="evenodd" d="M1214.2 894.37C1212.76 889.025 1207.27 885.852 1201.92 887.283C1196.58 888.716 1191.08 885.544 1189.65 880.198C1188.22 874.853 1191.39 869.358 1196.74 867.925C1212.77 863.628 1229.26 873.146 1233.56 889.183C1237.85 905.22 1228.34 921.705 1212.3 926.002C1206.95 927.435 1201.46 924.262 1200.03 918.915C1198.59 913.57 1201.77 908.074 1207.11 906.643C1212.46 905.21 1215.63 899.715 1214.2 894.37Z" fill="#5FAA46"/>
<path fill-rule="evenodd" clip-rule="evenodd" d="M1274.32 774.12C1272.89 768.774 1267.39 765.602 1262.05 767.034C1256.7 768.467 1251.21 765.294 1249.78 759.948C1248.34 754.603 1251.52 749.108 1256.86 747.675C1272.9 743.378 1289.38 752.895 1293.68 768.933C1297.98 784.97 1288.46 801.455 1272.42 805.752C1267.08 807.184 1261.58 804.012 1260.15 798.666C1258.72 793.32 1261.89 787.825 1267.24 786.393C1272.58 784.96 1275.75 779.466 1274.32 774.12Z" fill="#5FAA46"/>
<path fill-rule="evenodd" clip-rule="evenodd" d="M1314.41 994.578C1315.84 989.233 1321.33 986.061 1326.68 987.491C1332.03 988.924 1337.52 985.752 1338.95 980.407C1340.39 975.062 1337.21 969.566 1331.87 968.133C1315.83 963.836 1299.35 973.354 1295.05 989.391C1290.75 1005.43 1300.27 1021.91 1316.31 1026.21C1321.65 1027.64 1327.15 1024.47 1328.58 1019.12C1330.01 1013.78 1326.84 1008.28 1321.49 1006.85C1316.15 1005.42 1312.98 999.923 1314.41 994.578Z" fill="#5FAA46"/>
<path fill-rule="evenodd" clip-rule="evenodd" d="M1414.62 874.329C1416.05 868.983 1421.54 865.811 1426.89 867.243C1432.24 868.676 1437.73 865.503 1439.16 860.157C1440.6 854.812 1437.42 849.317 1432.08 847.884C1416.04 843.587 1399.55 853.104 1395.26 869.142C1390.96 885.179 1400.48 901.664 1416.51 905.961C1421.86 907.394 1427.36 904.221 1428.79 898.874C1430.22 893.529 1427.05 888.033 1421.7 886.602C1416.36 885.169 1413.18 879.674 1414.62 874.329Z" fill="#5FAA46"/>
<path d="M1596.17 775C1596.17 822.404 1634.6 860.834 1682 860.834C1729.4 860.834 1767.83 822.404 1767.83 775C1767.83 727.596 1729.4 689.167 1682 689.167C1634.6 689.167 1596.17 727.596 1596.17 775Z" fill="#CC7400"/>
<path fill-rule="evenodd" clip-rule="evenodd" d="M1682 697.75C1724.66 697.75 1759.25 732.336 1759.25 775C1759.25 817.664 1724.66 852.25 1682 852.25C1639.34 852.25 1604.75 817.664 1604.75 775C1604.75 732.336 1639.34 697.75 1682 697.75ZM1776.42 775C1776.42 722.855 1734.14 680.583 1682 680.583C1629.86 680.583 1587.58 722.855 1587.58 775C1587.58 827.144 1629.86 869.416 1682 869.416C1734.14 869.416 1776.42 827.144 1776.42 775Z" fill="#6F2F0F"/>
<path d="M1699.17 835.083C1675.46 835.083 1656.25 815.869 1656.25 792.167C1656.25 768.464 1675.46 749.25 1699.17 749.25C1722.87 749.25 1742.08 768.464 1742.08 792.167C1742.08 815.869 1722.87 835.083 1699.17 835.083Z" fill="#FFCD71"/>
<path d="M1673.42 723.5C1668.68 723.5 1664.83 719.657 1664.83 714.916C1664.83 710.176 1668.68 706.333 1673.42 706.333C1678.16 706.333 1682 710.176 1682 714.916C1682 719.657 1678.16 723.5 1673.42 723.5Z" fill="white"/>
<path d="M1634.79 749.25C1632.42 749.25 1630.5 747.329 1630.5 744.959C1630.5 742.588 1632.42 740.667 1634.79 740.667C1637.16 740.667 1639.08 742.588 1639.08 744.959C1639.08 747.329 1637.16 749.25 1634.79 749.25Z" fill="white"/>
<path d="M1686.29 775C1683.92 775 1682 773.079 1682 770.709C1682 768.338 1683.92 766.417 1686.29 766.417C1688.66 766.417 1690.58 768.338 1690.58 770.709C1690.58 773.079 1688.66 775 1686.29 775Z" fill="#99621A"/>
<path d="M1639.08 809.334C1634.34 809.334 1630.5 805.491 1630.5 800.75C1630.5 796.01 1634.34 792.167 1639.08 792.167C1643.82 792.167 1647.67 796.01 1647.67 800.75C1647.67 805.491 1643.82 809.334 1639.08 809.334Z" fill="white"/>
<path d="M1617.62 775C1615.25 775 1613.33 773.079 1613.33 770.709C1613.33 768.338 1615.25 766.417 1617.62 766.417C1620 766.417 1621.92 768.338 1621.92 770.709C1621.92 773.079 1620 775 1617.62 775Z" fill="white"/>
<path d="M1686.29 809.333C1683.92 809.333 1682 807.412 1682 805.042C1682 802.671 1683.92 800.75 1686.29 800.75C1688.66 800.75 1690.58 802.671 1690.58 805.042C1690.58 807.412 1688.66 809.333 1686.29 809.333Z" fill="#99621A"/>
<path d="M1669.12 749.25C1666.75 749.25 1664.83 747.329 1664.83 744.959C1664.83 742.588 1666.75 740.667 1669.12 740.667C1671.5 740.667 1673.42 742.588 1673.42 744.959C1673.42 747.329 1671.5 749.25 1669.12 749.25Z" fill="white"/>
<path d="M1720.62 783.583C1718.25 783.583 1716.33 781.662 1716.33 779.292C1716.33 776.921 1718.25 775 1720.62 775C1723 775 1724.92 776.921 1724.92 779.292C1724.92 781.662 1723 783.583 1720.62 783.583Z" fill="#99621A"/>
<path d="M1712.04 732.083C1709.67 732.083 1707.75 730.162 1707.75 727.792C1707.75 725.421 1709.67 723.5 1712.04 723.5C1714.41 723.5 1716.33 725.421 1716.33 727.792C1716.33 730.162 1714.41 732.083 1712.04 732.083Z" fill="white"/>
<g clip-path="url(#clip3_1116_10648)">
<path d="M1784.66 298.461C1825.73 369.606 1801.36 460.581 1730.21 501.657C1659.06 542.733 1568.09 518.356 1527.01 447.211C1485.94 376.065 1510.31 285.091 1581.46 244.015C1652.61 202.939 1743.58 227.315 1784.66 298.461Z" fill="white"/>
<path fill-rule="evenodd" clip-rule="evenodd" d="M1588.9 256.896C1524.87 293.865 1502.93 375.741 1539.9 439.773C1576.87 503.805 1658.74 525.743 1722.77 488.774C1786.81 451.806 1808.74 369.93 1771.77 305.898C1734.81 241.866 1652.93 219.927 1588.9 256.896ZM1514.13 454.648C1468.95 376.387 1495.76 276.316 1574.02 231.132C1652.28 185.948 1752.36 212.762 1797.54 291.023C1842.72 369.283 1815.91 469.355 1737.65 514.539C1659.39 559.722 1559.32 532.908 1514.13 454.648Z" fill="#5FAA46"/>
<path d="M1593.42 443.225C1607.65 435.01 1612.52 416.815 1604.31 402.586C1596.09 388.356 1577.9 383.481 1563.67 391.696C1549.44 399.912 1544.56 418.106 1552.78 432.336C1560.99 446.565 1579.19 451.44 1593.42 443.225Z" fill="#5FAA46"/>
<path d="M1597.87 406.304C1615.65 396.035 1621.75 373.292 1611.48 355.505C1601.21 337.719 1578.46 331.625 1560.68 341.894C1542.89 352.163 1536.8 374.906 1547.07 392.693C1557.34 410.479 1580.08 416.573 1597.87 406.304Z" fill="#5FAA46"/>
<path d="M1622.63 374.828C1636.86 366.613 1641.74 348.418 1633.52 334.189C1625.31 319.96 1607.11 315.085 1592.88 323.3C1578.65 331.515 1573.78 349.71 1581.99 363.939C1590.21 378.168 1608.4 383.044 1622.63 374.828Z" fill="#5FAA46"/>
<path d="M1604.31 402.585C1618.54 394.37 1623.41 376.175 1615.2 361.946C1606.98 347.717 1588.79 342.841 1574.56 351.057C1560.33 359.272 1555.45 377.467 1563.67 391.696C1571.88 405.925 1590.08 410.8 1604.31 402.585Z" fill="#D71A1A"/>
<path d="M1727.68 348.53C1741.91 340.315 1746.79 322.12 1738.57 307.891C1730.36 293.662 1712.16 288.787 1697.93 297.002C1683.7 305.217 1678.83 323.412 1687.04 337.641C1695.26 351.87 1713.45 356.746 1727.68 348.53Z" fill="#5FAA46"/>
<path d="M1754.44 350.256C1765.12 344.094 1768.77 330.448 1762.61 319.776C1756.45 309.104 1742.8 305.448 1732.13 311.609C1721.46 317.771 1717.8 331.417 1723.96 342.089C1730.13 352.761 1743.77 356.417 1754.44 350.256Z" fill="#5FAA46"/>
<path d="M1694.48 350.523C1708.71 342.307 1713.59 324.113 1705.37 309.883C1697.16 295.654 1678.96 290.779 1664.73 298.994C1650.5 307.209 1645.63 325.404 1653.84 339.633C1662.06 353.863 1680.25 358.738 1694.48 350.523Z" fill="#D71A1A"/>
<path d="M1711.07 299.2C1719.17 291.104 1732.99 294.809 1735.96 305.869L1742.63 330.755C1745.59 341.816 1735.47 351.937 1724.41 348.973L1699.52 342.305C1688.46 339.341 1684.76 325.515 1692.85 317.419L1711.07 299.2Z" fill="#FFD700"/>
<path d="M1632.07 336.715C1641.98 342.44 1641.98 356.755 1632.07 362.48L1609.75 375.362C1599.84 381.087 1587.44 373.93 1587.44 362.479L1587.44 336.715C1587.44 325.264 1599.84 318.108 1609.75 323.833L1632.07 336.715Z" fill="#FFD700"/>
<path d="M1626.09 321.307C1580.99 347.344 1562.14 402.17 1577.22 452.886C1581.9 468.635 1600.5 473.486 1614.73 465.27L1756.44 383.458C1770.67 375.242 1775.77 356.705 1764.47 344.775C1728.09 306.356 1671.18 295.271 1626.09 321.307Z" fill="#FFCD71"/>
<path d="M1629.07 371.11C1632.63 369.056 1633.85 364.507 1631.8 360.95C1629.74 357.393 1625.19 356.174 1621.64 358.228C1618.08 360.281 1616.86 364.83 1618.92 368.387C1620.97 371.945 1625.52 373.163 1629.07 371.11Z" fill="#F7931E"/>
<path d="M1688.04 354.242C1691.6 352.188 1692.82 347.639 1690.76 344.082C1688.71 340.524 1684.16 339.306 1680.6 341.359C1677.05 343.413 1675.83 347.962 1677.88 351.519C1679.93 355.076 1684.48 356.295 1688.04 354.242Z" fill="#F7931E"/>
<path d="M1651.39 409.756C1654.94 407.702 1656.16 403.154 1654.11 399.596C1652.06 396.039 1647.51 394.82 1643.95 396.874C1640.39 398.928 1639.17 403.477 1641.23 407.034C1643.28 410.591 1647.83 411.81 1651.39 409.756Z" fill="#F7931E"/>
<path d="M1741.56 357.694C1745.12 355.64 1746.34 351.091 1744.28 347.534C1742.23 343.977 1737.68 342.758 1734.12 344.812C1730.57 346.865 1729.35 351.414 1731.4 354.971C1733.46 358.529 1738 359.747 1741.56 357.694Z" fill="#F7931E"/>
<path d="M1599.86 439.506C1603.42 437.452 1604.64 432.904 1602.58 429.346C1600.53 425.789 1595.98 424.57 1592.42 426.624C1588.86 428.678 1587.65 433.227 1589.7 436.784C1591.75 440.341 1596.3 441.56 1599.86 439.506Z" fill="#F7931E"/>
</g>
<g clip-path="url(#clip4_1116_10648)">
<path d="M1409.93 224.833C1391.75 256.32 1351.49 267.109 1320 248.93C1288.51 230.75 1277.72 190.487 1295.9 159C1314.08 127.512 1354.35 116.724 1385.83 134.903C1417.32 153.082 1428.11 193.345 1409.93 224.833Z" fill="white"/>
<path fill-rule="evenodd" clip-rule="evenodd" d="M1382.54 140.604C1354.2 124.243 1317.97 133.952 1301.6 162.291C1285.24 190.63 1294.95 226.867 1323.29 243.228C1351.63 259.59 1387.87 249.88 1404.23 221.541C1420.59 193.202 1410.88 156.966 1382.54 140.604ZM1290.2 155.708C1310.2 121.071 1354.49 109.204 1389.12 129.201C1423.76 149.199 1435.63 193.488 1415.63 228.124C1395.63 262.761 1351.34 274.628 1316.71 254.631C1282.07 234.634 1270.2 190.344 1290.2 155.708Z" fill="white"/>
<path fill-rule="evenodd" clip-rule="evenodd" d="M1382.54 140.604C1354.2 124.243 1317.97 133.952 1301.6 162.291C1285.24 190.63 1294.95 226.867 1323.29 243.228C1351.63 259.59 1387.87 249.88 1404.23 221.541C1420.59 193.202 1410.88 156.966 1382.54 140.604ZM1290.2 155.708C1310.2 121.071 1354.49 109.204 1389.12 129.201C1423.76 149.199 1435.63 193.488 1415.63 228.124C1395.63 262.761 1351.34 274.628 1316.71 254.631C1282.07 234.634 1270.2 190.344 1290.2 155.708Z" fill="#999999"/>
<path d="M1311.92 213.684C1332.78 228.296 1349.26 211.759 1354.89 201.663C1358.32 191.686 1358.32 191.682 1357.54 180.532L1357.54 180.516C1357.02 173.096 1382.85 168.162 1366.01 147.864C1348.08 126.26 1315.06 158.624 1309.34 164.792C1301.62 173.12 1285.86 195.418 1311.92 213.684Z" fill="#FFD7D4"/>
<path d="M1314.95 207.946C1327.72 216.468 1343.79 209.073 1347.48 201.262C1350.5 194.87 1347.61 186.021 1349.21 179.273C1350.94 171.976 1370.47 162.832 1360.35 151.326C1349.57 139.08 1324.42 157.375 1316.06 165.454C1310.23 171.089 1296.21 195.442 1314.95 207.946Z" fill="#FF766D"/>
<path d="M1325.94 199.145C1329.09 200.962 1333.11 199.884 1334.93 196.735C1336.75 193.586 1335.67 189.56 1332.52 187.742C1329.37 185.924 1325.35 187.003 1323.53 190.152C1321.71 193.3 1322.79 197.327 1325.94 199.145Z" fill="white"/>
<path d="M1365.2 183.805C1371.78 172.403 1392.11 161.333 1398.76 165.173C1405.41 169.012 1405.99 192.153 1399.41 203.555C1391.39 217.452 1379.3 224.883 1373.06 226.346C1376.81 236.117 1371.91 244.69 1369.25 246.956C1364.4 244.151 1358.12 235.56 1362.55 227.888C1351.99 236.988 1344.76 232.814 1341.72 231.061C1344.35 226.5 1349.18 216.369 1360.15 218.895C1356.09 212.752 1356.97 198.058 1365.2 183.805Z" fill="#A6BBD8"/>
<path d="M1391.74 183.923C1393.31 184.832 1395.33 184.293 1396.24 182.719C1397.14 181.144 1396.6 179.131 1395.03 178.222C1393.46 177.313 1391.44 177.852 1390.53 179.427C1389.62 181.001 1390.16 183.014 1391.74 183.923Z" fill="white"/>
</g>
</g>
<defs>
<clipPath id="clip0_1116_10648">
<rect width="1920" height="1080" fill="white"/>
</clipPath>
<clipPath id="clip1_1116_10648">
<rect width="189" height="189" fill="white" transform="translate(151.124 449) rotate(10.7102)"/>
</clipPath>
<clipPath id="clip2_1116_10648">
<rect width="353" height="353" fill="white" transform="translate(386.696 614.332) rotate(15)"/>
</clipPath>
<clipPath id="clip3_1116_10648">
<rect width="357" height="357" fill="white" transform="translate(1412 307.5) rotate(-30)"/>
</clipPath>
<clipPath id="clip4_1116_10648">
<rect width="158" height="158" fill="white" transform="translate(1324 84) rotate(30)"/>
</clipPath>
</defs>
</svg>
