<svg width="216" height="117" viewBox="0 0 216 117" fill="none" xmlns="http://www.w3.org/2000/svg">
<path fill-rule="evenodd" clip-rule="evenodd" d="M180.783 51.72C182.703 38.52 182.703 29.52 180.903 17.16C179.703 7.32 185.943 3 195.663 3C204.063 3 209.943 6.72 211.023 14.76C213.183 28.32 213.183 39.72 211.023 53.28C209.943 61.32 204.063 65.04 195.663 65.04C185.943 65.04 179.703 60.72 180.783 51.72ZM110.463 34.32C110.463 16.68 117.903 3.36 144.063 3.36C170.223 3.36 177.783 16.68 177.783 34.32C177.783 51.36 168.903 64.2 144.063 64.2C119.103 64.2 110.463 51.36 110.463 34.32ZM156.663 77.88C160.983 77.4 164.223 77.4 168.303 77.88V74.76C168.303 63.72 207.303 63.12 210.783 76.32C212.823 84.72 213.183 94.32 210.783 102.12C208.983 108 202.383 111.48 192.303 112.32C172.863 114 152.223 114.12 132.663 112.32C122.703 111.6 116.223 108 114.303 102.12C112.143 94.32 112.263 84.72 114.303 76.32C117.783 63.12 156.663 63.72 156.663 74.76V77.88Z" fill="white"/>
<path fill-rule="evenodd" clip-rule="evenodd" d="M182.537 4.51322C185.808 1.63442 190.508 0.5 195.663 0.5C200.204 0.5 204.347 1.50249 207.561 3.84464C210.827 6.22532 212.873 9.80254 213.497 14.3961C215.692 28.1941 215.692 39.846 213.497 53.6439C212.873 58.2375 210.827 61.8147 207.561 64.1954C206.226 65.1683 204.73 65.9101 203.113 66.4449C203.273 66.5047 203.433 66.5658 203.591 66.6279C207.994 68.3564 212.024 71.2185 213.201 75.6827C213.205 75.6984 213.209 75.7142 213.213 75.73C215.323 84.4211 215.743 94.4995 213.174 102.852C210.892 110.304 202.802 113.953 192.515 114.811C172.951 116.502 152.172 116.624 132.458 114.812C122.195 114.065 114.332 110.261 111.927 102.896C111.915 102.86 111.904 102.824 111.894 102.787C109.603 94.5149 109.75 84.4768 111.874 75.73C111.878 75.7142 111.882 75.6984 111.886 75.6827C113.062 71.2213 117.081 68.3584 121.475 66.6288C123.676 65.762 126.122 65.1163 128.666 64.6759C123.481 63.1039 119.328 60.646 116.126 57.4077C110.225 51.4398 107.963 43.2325 107.963 34.32C107.963 25.2083 109.877 16.7223 115.62 10.5256C121.395 4.29414 130.59 0.860001 144.063 0.860001C157.537 0.860001 166.758 4.29417 172.562 10.5203C175.994 14.2012 178.073 18.6913 179.196 23.6428C178.996 21.6783 178.74 19.6512 178.429 17.5203C178.427 17.5011 178.424 17.4819 178.422 17.4626C177.749 11.9457 179.142 7.50097 182.537 4.51322ZM179.211 44.0709C178 49.1419 175.702 53.7115 172.009 57.4153C167.316 62.1208 160.62 65.1801 151.704 66.2623C155.457 67.7443 159.163 70.4061 159.163 74.76V75.1418C161.47 74.9825 163.572 74.9792 165.803 75.1332V74.76C165.803 70.2921 169.713 67.6084 173.568 66.1515C176.333 65.1063 179.658 64.4397 183.159 64.1367C182.958 63.9878 182.762 63.8335 182.571 63.6738C179.167 60.8306 177.68 56.6024 178.301 51.4221C178.304 51.4014 178.306 51.3808 178.309 51.3602C178.684 48.7839 178.984 46.3739 179.211 44.0709ZM183.382 16.8293C185.212 29.4123 185.209 38.6464 183.262 52.0477C182.813 55.8503 183.905 58.2735 185.776 59.8362C187.788 61.5165 191.104 62.54 195.663 62.54C199.523 62.54 202.52 61.6825 204.616 60.1546C206.652 58.6707 208.085 56.3787 208.546 52.9472C208.548 52.927 208.551 52.9068 208.555 52.8867C210.673 39.5873 210.673 28.4527 208.555 15.1533C208.551 15.1332 208.548 15.113 208.546 15.0928C208.085 11.6613 206.652 9.36932 204.616 7.88536C202.52 6.35751 199.523 5.5 195.663 5.5C191.099 5.5 187.819 6.52558 185.84 8.26678C183.989 9.89549 182.863 12.5229 183.382 16.8293ZM119.287 13.9244C114.77 18.7977 112.963 25.7917 112.963 34.32C112.963 42.4475 115.022 49.1802 119.681 53.8922C124.334 58.598 131.988 61.7 144.063 61.7C156.075 61.7 163.766 58.5996 168.468 53.8847C173.173 49.1664 175.283 42.4313 175.283 34.32C175.283 25.7999 173.45 18.8054 168.905 13.9297C164.389 9.08583 156.749 5.86 144.063 5.86C131.377 5.86 123.771 9.08586 119.287 13.9244ZM175.335 70.8285C171.769 72.1766 170.803 73.7079 170.803 74.76V77.88C170.803 78.5939 170.498 79.2738 169.965 79.7482C169.431 80.2226 168.72 80.4463 168.011 80.3629C164.131 79.9063 161.082 79.9045 156.939 80.3647C156.233 80.4432 155.526 80.2171 154.996 79.7428C154.466 79.2686 154.163 78.5911 154.163 77.88V74.76C154.163 73.7037 153.199 72.174 149.648 70.8276C146.329 69.5693 141.693 68.8922 136.818 68.9498C131.952 69.0073 127.083 69.7942 123.306 71.2813C119.444 72.8015 117.299 74.8053 116.726 76.9359C114.782 84.9619 114.686 94.0852 116.697 101.395C118.153 105.759 123.237 109.132 132.844 109.826C132.86 109.828 132.876 109.829 132.892 109.831C152.291 111.616 172.781 111.498 192.088 109.829L192.096 109.829C201.966 109.006 207.074 105.696 208.393 101.388L208.394 101.385C210.621 94.146 210.324 85.0376 208.36 76.9361C207.789 74.8082 205.64 72.8036 201.764 71.2821C197.975 69.7945 193.091 69.0073 188.209 68.9498C183.319 68.8922 178.667 69.5694 175.335 70.8285Z" fill="#FF8732"/>
<path fill-rule="evenodd" clip-rule="evenodd" d="M36.36 76.44V78.72C30.4013 78.3763 24.4426 77.8137 18.3794 77.2412L17.52 77.16C8.4 76.08 3 83.4001 3 92.4001C3 103.56 8.4 109.08 17.52 110.04C44.28 112.8 69.12 112.8 95.88 110.04C105.24 109.08 110.52 103.56 110.52 92.4001C110.52 83.4001 105.24 76.08 96 77.16C89.52 77.8801 83.28 78.36 77.04 78.72V76.44C77.04 75.944 77.008 75.48 76.977 75.0316C76.948 74.612 76.92 74.206 76.92 73.8C83.28 73.32 89.52 72.6001 95.4 71.64C101.76 70.56 104.04 67.2 105.36 58.92C107.16 48.48 107.04 32.88 105.72 23.4C104.64 14.88 101.76 12.12 95.4 10.68C72 5.16004 41.52 5.16004 18.12 10.68C11.88 12.12 8.88 14.88 7.68 23.4C6.48 32.88 6.36 48.48 8.04 58.92C9.48 67.2 11.88 70.56 18.12 71.64C23.88 72.6001 30.12 73.32 36.48 73.8C36.48 74.206 36.452 74.612 36.423 75.0316C36.392 75.48 36.36 75.944 36.36 76.44Z" fill="white"/>
<path fill-rule="evenodd" clip-rule="evenodd" d="M94.826 13.1133C71.8035 7.6823 41.7165 7.6823 18.694 13.1133L18.6822 13.116C15.7966 13.7819 14.081 14.6613 12.8978 16.024C11.6815 17.4249 10.7307 19.6781 10.158 23.7315C8.98525 33.0143 8.87346 48.3474 10.5057 58.5073C11.2088 62.5433 12.0863 64.9414 13.255 66.4472C14.3223 67.8224 15.8354 68.7063 18.5387 69.1754C24.2111 70.1205 30.3729 70.832 36.6682 71.3071C37.9722 71.4056 38.98 72.4923 38.98 73.8C38.98 74.2931 38.9469 74.7727 38.9194 75.1706L38.9171 75.2038L36.423 75.0316L36.4124 75.0308M36.423 75.0316L38.9171 75.2038C38.8855 75.6617 38.86 76.0429 38.86 76.44V78.72C38.86 79.4081 38.5764 80.0657 38.0761 80.538C37.5758 81.0103 36.9029 81.2555 36.216 81.2159C30.2113 80.8695 24.2143 80.3032 18.1664 79.7322L17.285 79.649C17.2653 79.6471 17.2457 79.645 17.226 79.6427C13.4659 79.1974 10.6512 80.4609 8.71401 82.6548C6.71287 84.9211 5.5 88.3666 5.5 92.4001C5.5 97.595 6.75502 101.112 8.73536 103.415C10.7008 105.7 13.6667 107.12 17.7805 107.554C44.3684 110.296 69.0354 110.296 95.6235 107.553L95.6249 107.553C99.8707 107.118 102.858 105.69 104.815 103.415C106.789 101.12 108.02 97.6083 108.02 92.4001C108.02 88.3528 106.83 84.9092 104.846 82.6491C102.931 80.4671 100.121 79.1953 96.2902 79.6431L96.2761 79.6447C89.7417 80.3708 83.4562 80.854 77.184 81.2159C76.4971 81.2555 75.8242 81.0103 75.3239 80.538C74.8236 80.0657 74.54 79.4081 74.54 78.72V76.44C74.54 76.0429 74.5146 75.6617 74.4829 75.2038L74.4807 75.1707C74.4531 74.7728 74.42 74.2932 74.42 73.8C74.42 72.4923 75.4278 71.4056 76.7318 71.3071C83.0258 70.8321 89.1906 70.1204 94.9887 69.1741C97.7596 68.7025 99.2527 67.8164 100.281 66.4658C101.417 64.9726 102.244 62.5852 102.891 58.5265L102.896 58.4953C104.646 48.3464 104.534 33.009 103.244 23.7448L103.24 23.7144C102.723 19.6362 101.82 17.3938 100.638 16.0071C99.4938 14.6657 97.7978 13.7862 94.8479 13.1183L94.826 13.1133M95.9632 8.24428C72.1891 2.63824 41.325 2.63863 17.5519 8.24544C14.2 9.0196 11.2977 10.2403 9.12223 12.746C6.9802 15.2132 5.83201 18.5956 5.20443 23.0514L5.19979 23.0861C3.97521 32.7603 3.84768 48.6034 5.57175 59.3172L5.57697 59.3484C6.31342 63.583 7.35524 67.0006 9.30503 69.5129C11.3567 72.1564 14.1618 73.4921 17.6936 74.1034L17.709 74.106C22.1663 74.8489 26.8968 75.4486 31.7394 75.9064C27.4097 75.5825 23.0543 75.1715 18.6144 74.7522L17.7832 74.6738C12.4371 74.0498 8.00302 75.9058 4.96599 79.3453C1.98713 82.719 0.5 87.4335 0.5 92.4001C0.5 98.3651 1.94498 103.188 4.94463 106.675C7.95901 110.18 12.2527 111.999 17.2583 112.526L17.2635 112.527C44.194 115.304 69.2059 115.304 96.1365 112.527C101.25 112.002 105.583 110.19 108.605 106.675C111.611 103.18 113.02 98.3518 113.02 92.4001C113.02 87.4473 111.57 82.7309 108.604 79.351C105.571 75.8947 101.123 74.0466 95.718 74.676C90.6979 75.2337 85.8188 75.6466 80.9642 75.9713C86.0533 75.5058 91.0407 74.8849 95.8028 74.1074L95.8185 74.1048C99.403 73.4961 102.228 72.1625 104.259 69.4943C106.18 66.9706 107.153 63.5434 107.826 59.3293C109.673 48.604 109.546 32.763 108.198 23.0705C107.635 18.6362 106.557 15.2434 104.442 12.7629C102.289 10.2372 99.3686 9.01652 95.9632 8.24428Z" fill="#FF8732"/>
<path fill-rule="evenodd" clip-rule="evenodd" d="M71.0801 42.6133C71.846 43.7621 71.5355 45.3143 70.3867 46.0801C68.1822 47.5498 62.3937 50.5 56.5 50.5C50.5549 50.5 45.3863 47.5106 43.4382 45.9522C42.3601 45.0897 42.1853 43.5164 43.0478 42.4383C43.9103 41.3601 45.4836 41.1853 46.5617 42.0478C47.947 43.1561 52.0451 45.5 56.5 45.5C61.0062 45.5 65.8177 43.1169 67.6132 41.9199C68.762 41.154 70.3142 41.4644 71.0801 42.6133Z" fill="#FF8732"/>
<path fill-rule="evenodd" clip-rule="evenodd" d="M65.1101 41.5059C64.4004 40.8057 63.4354 40.3163 61.9194 40.5666C61.2246 40.6813 60.9736 40.9133 60.8643 41.0455C60.7245 41.2148 60.5729 41.5287 60.5193 42.094C60.4048 43.2998 60.8114 44.8766 61.3032 45.99C61.861 47.253 61.2894 48.7291 60.0264 49.2869C58.7634 49.8448 57.2873 49.2731 56.7295 48.0101C56.0565 46.4864 55.315 44.0088 55.5416 41.6215C55.6585 40.3903 56.0498 39.0231 57.0092 37.8615C57.9992 36.6629 59.4038 35.9142 61.105 35.6333C64.3812 35.0925 66.9105 36.2583 68.6217 37.9466C70.239 39.5423 71.1028 41.5611 71.4347 42.9857C71.748 44.3304 70.9119 45.6744 69.5672 45.9877C68.2225 46.301 66.8784 45.4649 66.5651 44.1202C66.3978 43.4021 65.9139 42.2989 65.1101 41.5059Z" fill="#FF8732"/>
<rect x="38" y="28" width="8" height="8" rx="4" fill="#FF8732"/>
<rect x="68" y="28" width="8" height="8" rx="4" fill="#FF8732"/>
<rect x="129" y="32" width="8" height="8" rx="4" fill="#FF8732"/>
<rect x="155" y="32" width="8" height="8" rx="4" fill="#FF8732"/>
<path fill-rule="evenodd" clip-rule="evenodd" d="M159.08 46.6133C159.846 47.7621 159.536 49.3143 158.387 50.0801C156.182 51.5498 150.394 54.5 144.5 54.5C138.555 54.5 133.386 51.5106 131.438 49.9522C130.36 49.0897 130.185 47.5164 131.048 46.4383C131.91 45.3601 133.484 45.1853 134.562 46.0478C135.947 47.1561 140.045 49.5 144.5 49.5C149.006 49.5 153.818 47.1169 155.613 45.9199C156.762 45.154 158.314 45.4644 159.08 46.6133Z" fill="#FF8732"/>
<path fill-rule="evenodd" clip-rule="evenodd" d="M153.11 45.5059C152.4 44.8057 151.435 44.3163 149.919 44.5666C149.225 44.6813 148.974 44.9133 148.864 45.0455C148.724 45.2148 148.573 45.5287 148.519 46.094C148.405 47.2998 148.811 48.8766 149.303 49.99C149.861 51.253 149.289 52.7291 148.026 53.2869C146.763 53.8448 145.287 53.2731 144.729 52.0101C144.056 50.4864 143.315 48.0088 143.542 45.6215C143.659 44.3903 144.05 43.0231 145.009 41.8615C145.999 40.6629 147.404 39.9142 149.105 39.6333C152.381 39.0925 154.91 40.2583 156.622 41.9466C158.239 43.5423 159.103 45.5611 159.435 46.9857C159.748 48.3304 158.912 49.6744 157.567 49.9877C156.222 50.301 154.878 49.4649 154.565 48.1202C154.398 47.4021 153.914 46.2989 153.11 45.5059Z" fill="#FF8732"/>
<path fill-rule="evenodd" clip-rule="evenodd" d="M177.08 89.6133C177.846 90.7621 177.536 92.3143 176.387 93.0801C174.182 94.5498 168.394 97.5 162.5 97.5C156.555 97.5 151.386 94.5106 149.438 92.9522C148.36 92.0897 148.185 90.5164 149.048 89.4383C149.91 88.3601 151.484 88.1853 152.562 89.0478C153.947 90.1561 158.045 92.5 162.5 92.5C167.006 92.5 171.818 90.1169 173.613 88.9199C174.762 88.154 176.314 88.4644 177.08 89.6133Z" fill="#FF8732"/>
<path fill-rule="evenodd" clip-rule="evenodd" d="M171.11 88.5059C170.4 87.8057 169.435 87.3163 167.919 87.5666C167.225 87.6813 166.974 87.9133 166.864 88.0455C166.724 88.2148 166.573 88.5287 166.519 89.094C166.405 90.2998 166.811 91.8766 167.303 92.99C167.861 94.253 167.289 95.7291 166.026 96.2869C164.763 96.8448 163.287 96.2731 162.729 95.0101C162.056 93.4864 161.315 91.0088 161.542 88.6215C161.659 87.3903 162.05 86.0231 163.009 84.8615C163.999 83.6629 165.404 82.9142 167.105 82.6333C170.381 82.0925 172.91 83.2583 174.622 84.9466C176.239 86.5423 177.103 88.5611 177.435 89.9857C177.748 91.3304 176.912 92.6744 175.567 92.9877C174.222 93.301 172.878 92.4649 172.565 91.1202C172.398 90.4021 171.914 89.2989 171.11 88.5059Z" fill="#FF8732"/>
<rect x="143" y="75" width="8" height="8" rx="4" fill="#FF8732"/>
<rect x="174" y="75" width="8" height="8" rx="4" fill="#FF8732"/>
</svg>
