<svg width="89" height="47" viewBox="0 0 89 47" fill="none" xmlns="http://www.w3.org/2000/svg">
<path fill-rule="evenodd" clip-rule="evenodd" d="M75.0691 20.8624C75.8755 15.3184 75.8755 11.5384 75.1195 6.34719C74.6155 2.21439 77.2363 0.399994 81.3187 0.399994C84.8467 0.399994 87.3163 1.96239 87.7699 5.33919C88.6771 11.0344 88.6771 15.8224 87.7699 21.5176C87.3163 24.8944 84.8467 26.4568 81.3187 26.4568C77.2363 26.4568 74.6155 24.6424 75.0691 20.8624ZM45.5347 13.5544C45.5347 6.14559 48.6595 0.551194 59.6467 0.551194C70.6339 0.551194 73.8091 6.14559 73.8091 13.5544C73.8091 20.7112 70.0795 26.104 59.6467 26.104C49.1635 26.104 45.5347 20.7112 45.5347 13.5544ZM64.9387 31.8496C66.7531 31.648 68.1139 31.648 69.8275 31.8496V30.5392C69.8275 25.9024 86.2075 25.6504 87.6691 31.1944C88.5259 34.7224 88.6771 38.7544 87.6691 42.0304C86.9131 44.5 84.1411 45.9616 79.9075 46.3144C71.7427 47.02 63.0739 47.0704 54.8587 46.3144C50.6755 46.012 47.9539 44.5 47.1475 42.0304C46.2403 38.7544 46.2907 34.7224 47.1475 31.1944C48.6091 25.6504 64.9387 25.9024 64.9387 30.5392V31.8496Z" fill="white"/>
<path fill-rule="evenodd" clip-rule="evenodd" d="M14.4111 31.2448V32.2024C11.9085 32.058 9.4058 31.8217 6.85926 31.5813L6.4983 31.5472C2.6679 31.0936 0.399902 34.168 0.399902 37.948C0.399902 42.6352 2.6679 44.9536 6.4983 45.3568C17.7375 46.516 28.1703 46.516 39.4095 45.3568C43.3407 44.9536 45.5583 42.6352 45.5583 37.948C45.5583 34.168 43.3407 31.0936 39.4599 31.5472C36.7383 31.8496 34.1175 32.0512 31.4967 32.2024V31.2448C31.4967 31.0365 31.4833 30.8416 31.4702 30.6532C31.4581 30.477 31.4463 30.3065 31.4463 30.136C34.1175 29.9344 36.7383 29.632 39.2079 29.2288C41.8791 28.7752 42.8367 27.364 43.3911 23.8864C44.1471 19.5016 44.0967 12.9496 43.5423 8.96801C43.0887 5.38961 41.8791 4.23041 39.2079 3.62561C29.3799 1.30721 16.5783 1.30721 6.7503 3.62561C4.1295 4.23041 2.8695 5.38961 2.3655 8.96801C1.8615 12.9496 1.8111 19.5016 2.5167 23.8864C3.1215 27.364 4.1295 28.7752 6.7503 29.2288C9.1695 29.632 11.7903 29.9344 14.4615 30.136C14.4615 30.3065 14.4497 30.477 14.4376 30.6532C14.4246 30.8416 14.4111 31.0365 14.4111 31.2448Z" fill="white"/>
<path d="M18.04 17.62C18.74 18.18 20.686 19.3 22.87 19.3C25.054 19.3 27.28 18.18 28.12 17.62" stroke="#FF8732" stroke-width="2.1" stroke-linecap="round"/>
<path d="M23.9269 18.88C23.4377 17.7724 22.9625 15.4742 24.9752 15.142C26.9879 14.8097 27.9103 16.5323 28.12 17.4322" stroke="#FF8732" stroke-width="2.1" stroke-linecap="round"/>
<rect x="15.1001" y="10.9" width="3.36" height="3.36" rx="1.68" fill="#FF8732"/>
<rect x="27.7002" y="10.9" width="3.36" height="3.36" rx="1.68" fill="#FF8732"/>
<rect x="53.3198" y="12.58" width="3.36" height="3.36" rx="1.68" fill="#FF8732"/>
<rect x="64.24" y="12.58" width="3.36" height="3.36" rx="1.68" fill="#FF8732"/>
<path d="M55 19.3C55.7 19.86 57.646 20.98 59.83 20.98C62.014 20.98 64.24 19.86 65.08 19.3" stroke="#FF8732" stroke-width="2.1" stroke-linecap="round"/>
<path d="M60.8868 20.56C60.3976 19.4524 59.9224 17.1542 61.9351 16.8219C63.9478 16.4897 64.8703 18.2123 65.08 19.1122" stroke="#FF8732" stroke-width="2.1" stroke-linecap="round"/>
<path d="M62.5596 37.36C63.2596 37.92 65.2056 39.04 67.3896 39.04C69.5736 39.04 71.7996 37.92 72.6396 37.36" stroke="#FF8732" stroke-width="2.1" stroke-linecap="round"/>
<path d="M68.4464 38.62C67.9572 37.5124 67.482 35.2142 69.4947 34.8819C71.5074 34.5497 72.4299 36.2723 72.6395 37.1722" stroke="#FF8732" stroke-width="2.1" stroke-linecap="round"/>
<rect x="59.1997" y="30.64" width="3.36" height="3.36" rx="1.68" fill="#FF8732"/>
<rect x="72.2195" y="30.64" width="3.36" height="3.36" rx="1.68" fill="#FF8732"/>
</svg>
