<svg width="250" height="250" viewBox="0 0 250 250" fill="none" xmlns="http://www.w3.org/2000/svg">
<rect width="250" height="250" rx="80" fill="#FF8732"/>
<path fill-rule="evenodd" clip-rule="evenodd" d="M197.783 118.72C199.703 105.52 199.703 96.52 197.903 84.16C196.703 74.32 202.943 70 212.663 70C221.063 70 226.943 73.72 228.023 81.76C230.183 95.32 230.183 106.72 228.023 120.28C226.943 128.32 221.063 132.04 212.663 132.04C202.943 132.04 196.703 127.72 197.783 118.72ZM127.463 101.32C127.463 83.68 134.903 70.36 161.063 70.36C187.223 70.36 194.783 83.68 194.783 101.32C194.783 118.36 185.903 131.2 161.063 131.2C136.103 131.2 127.463 118.36 127.463 101.32ZM173.663 144.88C177.983 144.4 181.223 144.4 185.303 144.88V141.76C185.303 130.72 224.303 130.12 227.783 143.32C229.823 151.72 230.183 161.32 227.783 169.12C225.983 175 219.383 178.48 209.303 179.32C189.863 181 169.223 181.12 149.663 179.32C139.703 178.6 133.223 175 131.303 169.12C129.143 161.32 129.263 151.72 131.303 143.32C134.783 130.12 173.663 130.72 173.663 141.76V144.88Z" fill="white"/>
<path fill-rule="evenodd" clip-rule="evenodd" d="M53.36 143.44V145.72C47.4013 145.376 41.4426 144.814 35.3794 144.241L34.52 144.16C25.4 143.08 20 150.4 20 159.4C20 170.56 25.4 176.08 34.52 177.04C61.28 179.8 86.12 179.8 112.88 177.04C122.24 176.08 127.52 170.56 127.52 159.4C127.52 150.4 122.24 143.08 113 144.16C106.52 144.88 100.28 145.36 94.04 145.72V143.44C94.04 142.944 94.008 142.48 93.977 142.032C93.948 141.612 93.92 141.206 93.92 140.8C100.28 140.32 106.52 139.6 112.4 138.64C118.76 137.56 121.04 134.2 122.36 125.92C124.16 115.48 124.04 99.88 122.72 90.4C121.64 81.88 118.76 79.12 112.4 77.68C89 72.16 58.52 72.16 35.12 77.68C28.88 79.12 25.88 81.88 24.68 90.4C23.48 99.88 23.36 115.48 25.04 125.92C26.48 134.2 28.88 137.56 35.12 138.64C40.88 139.6 47.12 140.32 53.48 140.8C53.48 141.206 53.452 141.612 53.423 142.032C53.392 142.48 53.36 142.944 53.36 143.44Z" fill="white"/>
<path d="M62 111C63.6667 112.333 68.3 115 73.5 115C78.7 115 84 112.333 86 111" stroke="#FF8732" stroke-width="5" stroke-linecap="round"/>
<path d="M76.0164 114C74.8516 111.363 73.7202 105.891 78.5123 105.1C83.3044 104.309 85.5008 108.41 86 110.553" stroke="#FF8732" stroke-width="5" stroke-linecap="round"/>
<rect x="55" y="95" width="8" height="8" rx="4" fill="#FF8732"/>
<rect x="85" y="95" width="8" height="8" rx="4" fill="#FF8732"/>
<rect x="146" y="99" width="8" height="8" rx="4" fill="#FF8732"/>
<rect x="172" y="99" width="8" height="8" rx="4" fill="#FF8732"/>
<path d="M150 115C151.667 116.333 156.3 119 161.5 119C166.7 119 172 116.333 174 115" stroke="#FF8732" stroke-width="5" stroke-linecap="round"/>
<path d="M164.016 118C162.852 115.363 161.72 109.891 166.512 109.1C171.304 108.309 173.501 112.41 174 114.553" stroke="#FF8732" stroke-width="5" stroke-linecap="round"/>
<path d="M168 158C169.667 159.333 174.3 162 179.5 162C184.7 162 190 159.333 192 158" stroke="#FF8732" stroke-width="5" stroke-linecap="round"/>
<path d="M182.016 161C180.852 158.363 179.72 152.891 184.512 152.1C189.304 151.309 191.501 155.41 192 157.553" stroke="#FF8732" stroke-width="5" stroke-linecap="round"/>
<rect x="160" y="142" width="8" height="8" rx="4" fill="#FF8732"/>
<rect x="191" y="142" width="8" height="8" rx="4" fill="#FF8732"/>
</svg>
