<svg width="24" height="25" viewBox="0 0 24 25" fill="none" xmlns="http://www.w3.org/2000/svg">
<path d="M22 12.5C22 18.0228 17.5228 22.5 12 22.5C6.47715 22.5 2 18.0228 2 12.5C2 6.97715 6.47715 2.5 12 2.5C17.5228 2.5 22 6.97715 22 12.5Z" fill="white"/>
<path fill-rule="evenodd" clip-rule="evenodd" d="M12 3.5C7.02944 3.5 3 7.52944 3 12.5C3 17.4706 7.02944 21.5 12 21.5C16.9706 21.5 21 17.4706 21 12.5C21 7.52944 16.9706 3.5 12 3.5ZM1 12.5C1 6.42487 5.92487 1.5 12 1.5C18.0751 1.5 23 6.42487 23 12.5C23 18.5751 18.0751 23.5 12 23.5C5.92487 23.5 1 18.5751 1 12.5Z" fill="#5FAA46"/>
<path d="M6 14.5C7.10457 14.5 8 13.6046 8 12.5C8 11.3954 7.10457 10.5 6 10.5C4.89543 10.5 4 11.3954 4 12.5C4 13.6046 4.89543 14.5 6 14.5Z" fill="#5FAA46"/>
<path d="M7.5 12.5C8.88071 12.5 10 11.3807 10 10C10 8.61929 8.88071 7.5 7.5 7.5C6.11929 7.5 5 8.61929 5 10C5 11.3807 6.11929 12.5 7.5 12.5Z" fill="#5FAA46"/>
<path d="M10 11.5C11.1046 11.5 12 10.6046 12 9.5C12 8.39543 11.1046 7.5 10 7.5C8.89543 7.5 8 8.39543 8 9.5C8 10.6046 8.89543 11.5 10 11.5Z" fill="#5FAA46"/>
<path d="M8 12.5C9.10457 12.5 10 11.6046 10 10.5C10 9.39543 9.10457 8.5 8 8.5C6.89543 8.5 6 9.39543 6 10.5C6 11.6046 6.89543 12.5 8 12.5Z" fill="#D71A1A"/>
<path d="M17 13.5C18.1046 13.5 19 12.6046 19 11.5C19 10.3954 18.1046 9.5 17 9.5C15.8954 9.5 15 10.3954 15 11.5C15 12.6046 15.8954 13.5 17 13.5Z" fill="#5FAA46"/>
<path d="M18.5 14.5C19.3284 14.5 20 13.8284 20 13C20 12.1716 19.3284 11.5 18.5 11.5C17.6716 11.5 17 12.1716 17 13C17 13.8284 17.6716 14.5 18.5 14.5Z" fill="#5FAA46"/>
<path d="M15 12.5C16.1046 12.5 17 11.6046 17 10.5C17 9.39543 16.1046 8.5 15 8.5C13.8954 8.5 13 9.39543 13 10.5C13 11.6046 13.8954 12.5 15 12.5Z" fill="#D71A1A"/>
<path d="M17.6903 10.0696C18.4338 9.87038 19.1142 10.5508 18.915 11.2944L18.4667 12.9674C18.2675 13.711 17.338 13.96 16.7937 13.4157L15.5689 12.1909C15.0246 11.6466 15.2737 10.7171 16.0172 10.5179L17.6903 10.0696Z" fill="#FFD700"/>
<path d="M11.8301 9.59809C12.215 10.2647 11.7338 11.0981 10.964 11.0981H9.23196C8.46216 11.0981 7.98103 10.2647 8.36593 9.59809L9.23196 8.09809C9.61686 7.43142 10.5791 7.43142 10.964 8.09809L11.8301 9.59809Z" fill="#FFD700"/>
<path d="M12.0009 8.5C8.50012 8.5 5.55959 11.0583 4.73284 14.5179C4.47611 15.5922 5.39628 16.5 6.50085 16.5H17.5009C18.6055 16.5 19.5256 15.5922 19.2689 14.5179C18.4422 11.0583 15.5016 8.5 12.0009 8.5Z" fill="#FFCD71"/>
<path d="M10.5 11.5C10.7761 11.5 11 11.2761 11 11C11 10.7239 10.7761 10.5 10.5 10.5C10.2239 10.5 10 10.7239 10 11C10 11.2761 10.2239 11.5 10.5 11.5Z" fill="#F7931E"/>
<path d="M14.5 12.5C14.7761 12.5 15 12.2761 15 12C15 11.7239 14.7761 11.5 14.5 11.5C14.2239 11.5 14 11.7239 14 12C14 12.2761 14.2239 12.5 14.5 12.5Z" fill="#F7931E"/>
<path d="M10.5 14.5C10.7761 14.5 11 14.2761 11 14C11 13.7239 10.7761 13.5 10.5 13.5C10.2239 13.5 10 13.7239 10 14C10 14.2761 10.2239 14.5 10.5 14.5Z" fill="#F7931E"/>
<path d="M17.5 14.5C17.7761 14.5 18 14.2761 18 14C18 13.7239 17.7761 13.5 17.5 13.5C17.2239 13.5 17 13.7239 17 14C17 14.2761 17.2239 14.5 17.5 14.5Z" fill="#F7931E"/>
<path d="M6.5 14.5C6.77614 14.5 7 14.2761 7 14C7 13.7239 6.77614 13.5 6.5 13.5C6.22386 13.5 6 13.7239 6 14C6 14.2761 6.22386 14.5 6.5 14.5Z" fill="#F7931E"/>
</svg>
