<svg width="33" height="32" viewBox="0 0 33 32" fill="none" xmlns="http://www.w3.org/2000/svg">
<g opacity="0.5">
<path d="M29.8327 16C29.8327 23.3637 23.8631 29.3333 16.4993 29.3333C9.13555 29.3333 3.16602 23.3637 3.16602 16C3.16602 8.63621 9.13555 2.66667 16.4993 2.66667C23.8631 2.66667 29.8327 8.63621 29.8327 16Z" fill="white"/>
<path fill-rule="evenodd" clip-rule="evenodd" d="M16.5007 3.99999C9.87324 3.99999 4.50065 9.37258 4.50065 16C4.50065 22.6275 9.87324 28 16.5007 28C23.1281 28 28.5006 22.6275 28.5006 16C28.5006 9.37258 23.1281 3.99999 16.5007 3.99999ZM1.83398 16C1.83398 7.89982 8.40048 1.33333 16.5007 1.33333C24.6008 1.33333 31.1673 7.89982 31.1673 16C31.1673 24.1001 24.6008 30.6667 16.5007 30.6667C8.40048 30.6667 1.83398 24.1001 1.83398 16Z" fill="white"/>
<path fill-rule="evenodd" clip-rule="evenodd" d="M16.5007 3.99999C9.87324 3.99999 4.50065 9.37258 4.50065 16C4.50065 22.6275 9.87324 28 16.5007 28C23.1281 28 28.5006 22.6275 28.5006 16C28.5006 9.37258 23.1281 3.99999 16.5007 3.99999ZM1.83398 16C1.83398 7.89982 8.40048 1.33333 16.5007 1.33333C24.6008 1.33333 31.1673 7.89982 31.1673 16C31.1673 24.1001 24.6008 30.6667 16.5007 30.6667C8.40048 30.6667 1.83398 24.1001 1.83398 16Z" fill="#333333"/>
<path fill-rule="evenodd" clip-rule="evenodd" d="M13.2196 14.5955C12.7382 15.2728 12.0102 15.7624 11.1665 15.9335C11.167 15.9556 11.1673 15.9778 11.1673 16C11.1673 17.4728 9.97341 18.6667 8.50065 18.6667C7.02789 18.6667 5.83398 17.4728 5.83398 16C5.83398 14.9573 6.43237 14.0545 7.30446 13.616C7.21523 13.3151 7.16732 12.9965 7.16732 12.6667C7.16732 10.8257 8.65971 9.33333 10.5007 9.33333C11.1503 9.33333 11.7565 9.51916 12.2691 9.84057C12.7086 9.52149 13.2493 9.33333 13.834 9.33333C15.3068 9.33333 16.5007 10.5272 16.5007 12C16.5007 13.4728 15.3068 14.6667 13.834 14.6667C13.6225 14.6667 13.4168 14.642 13.2196 14.5955Z" fill="white"/>
<path fill-rule="evenodd" clip-rule="evenodd" d="M13.2196 14.5955C12.7382 15.2728 12.0102 15.7624 11.1665 15.9335C11.167 15.9556 11.1673 15.9778 11.1673 16C11.1673 17.4728 9.97341 18.6667 8.50065 18.6667C7.02789 18.6667 5.83398 17.4728 5.83398 16C5.83398 14.9573 6.43237 14.0545 7.30446 13.616C7.21523 13.3151 7.16732 12.9965 7.16732 12.6667C7.16732 10.8257 8.65971 9.33333 10.5007 9.33333C11.1503 9.33333 11.7565 9.51916 12.2691 9.84057C12.7086 9.52149 13.2493 9.33333 13.834 9.33333C15.3068 9.33333 16.5007 10.5272 16.5007 12C16.5007 13.4728 15.3068 14.6667 13.834 14.6667C13.6225 14.6667 13.4168 14.642 13.2196 14.5955Z" fill="#999999"/>
<path d="M11.1667 16C12.6394 16 13.8333 14.8061 13.8333 13.3333C13.8333 11.8606 12.6394 10.6667 11.1667 10.6667C9.69391 10.6667 8.5 11.8606 8.5 13.3333C8.5 14.8061 9.69391 16 11.1667 16Z" fill="white"/>
<path d="M11.1667 16C12.6394 16 13.8333 14.8061 13.8333 13.3333C13.8333 11.8606 12.6394 10.6667 11.1667 10.6667C9.69391 10.6667 8.5 11.8606 8.5 13.3333C8.5 14.8061 9.69391 16 11.1667 16Z" fill="#666666"/>
<path fill-rule="evenodd" clip-rule="evenodd" d="M23.2796 17.331C23.2422 17.3325 23.2045 17.3333 23.1667 17.3333C21.6939 17.3333 20.5 16.1394 20.5 14.6667C20.5 13.1939 21.6939 12 23.1667 12C24.6394 12 25.8333 13.1939 25.8333 14.6667C25.8333 14.7045 25.8325 14.7422 25.831 14.7796C26.609 15.0535 27.1667 15.795 27.1667 16.6667C27.1667 17.7712 26.2712 18.6667 25.1667 18.6667C24.295 18.6667 23.5535 18.109 23.2796 17.331Z" fill="white"/>
<path fill-rule="evenodd" clip-rule="evenodd" d="M23.2796 17.331C23.2422 17.3325 23.2045 17.3333 23.1667 17.3333C21.6939 17.3333 20.5 16.1394 20.5 14.6667C20.5 13.1939 21.6939 12 23.1667 12C24.6394 12 25.8333 13.1939 25.8333 14.6667C25.8333 14.7045 25.8325 14.7422 25.831 14.7796C26.609 15.0535 27.1667 15.795 27.1667 16.6667C27.1667 17.7712 26.2712 18.6667 25.1667 18.6667C24.295 18.6667 23.5535 18.109 23.2796 17.331Z" fill="#999999"/>
<path d="M20.5007 16C21.9734 16 23.1673 14.8061 23.1673 13.3333C23.1673 11.8606 21.9734 10.6667 20.5007 10.6667C19.0279 10.6667 17.834 11.8606 17.834 13.3333C17.834 14.8061 19.0279 16 20.5007 16Z" fill="white"/>
<path d="M20.5007 16C21.9734 16 23.1673 14.8061 23.1673 13.3333C23.1673 11.8606 21.9734 10.6667 20.5007 10.6667C19.0279 10.6667 17.834 11.8606 17.834 13.3333C17.834 14.8061 19.0279 16 20.5007 16Z" fill="#666666"/>
<path d="M24.089 12.7595C25.0803 12.4938 25.9875 13.4011 25.7219 14.3925L25.1242 16.6232C24.8586 17.6147 23.6192 17.9467 22.8935 17.2209L21.2604 15.5879C20.5347 14.8621 20.8668 13.6228 21.8582 13.3572L24.089 12.7595Z" fill="white"/>
<path d="M24.089 12.7595C25.0803 12.4938 25.9875 13.4011 25.7219 14.3925L25.1242 16.6232C24.8586 17.6147 23.6192 17.9467 22.8935 17.2209L21.2604 15.5879C20.5347 14.8621 20.8668 13.6228 21.8582 13.3572L24.089 12.7595Z" fill="#E4E4E4"/>
<path d="M16.2741 12.1308C16.7873 13.0197 16.1457 14.1308 15.1193 14.1308H12.8099C11.7835 14.1308 11.142 13.0197 11.6552 12.1308L12.8099 10.1308C13.3231 9.24189 14.6061 9.24189 15.1193 10.1308L16.2741 12.1308Z" fill="white"/>
<path d="M16.2741 12.1308C16.7873 13.0197 16.1457 14.1308 15.1193 14.1308H12.8099C11.7835 14.1308 11.142 13.0197 11.6552 12.1308L12.8099 10.1308C13.3231 9.24189 14.6061 9.24189 15.1193 10.1308L16.2741 12.1308Z" fill="#E4E4E4"/>
<path d="M16.5005 10.6667C11.8328 10.6667 7.91214 14.0777 6.8098 18.6905C6.4675 20.1229 7.69439 21.3333 9.16715 21.3333H23.8338C25.3066 21.3333 26.5334 20.1229 26.1912 18.6905C25.0889 14.0777 21.1681 10.6667 16.5005 10.6667Z" fill="white"/>
<path d="M16.5005 10.6667C11.8328 10.6667 7.91214 14.0777 6.8098 18.6905C6.4675 20.1229 7.69439 21.3333 9.16715 21.3333H23.8338C25.3066 21.3333 26.5334 20.1229 26.1912 18.6905C25.0889 14.0777 21.1681 10.6667 16.5005 10.6667Z" fill="#CCCCCC"/>
<path d="M14.5007 14.6667C14.8688 14.6667 15.1673 14.3682 15.1673 14C15.1673 13.6318 14.8688 13.3333 14.5007 13.3333C14.1325 13.3333 13.834 13.6318 13.834 14C13.834 14.3682 14.1325 14.6667 14.5007 14.6667Z" fill="white"/>
<path d="M14.5007 14.6667C14.8688 14.6667 15.1673 14.3682 15.1673 14C15.1673 13.6318 14.8688 13.3333 14.5007 13.3333C14.1325 13.3333 13.834 13.6318 13.834 14C13.834 14.3682 14.1325 14.6667 14.5007 14.6667Z" fill="#666666"/>
<path d="M19.8327 16C20.2009 16 20.4993 15.7015 20.4993 15.3333C20.4993 14.9651 20.2009 14.6667 19.8327 14.6667C19.4645 14.6667 19.166 14.9651 19.166 15.3333C19.166 15.7015 19.4645 16 19.8327 16Z" fill="white"/>
<path d="M19.8327 16C20.2009 16 20.4993 15.7015 20.4993 15.3333C20.4993 14.9651 20.2009 14.6667 19.8327 14.6667C19.4645 14.6667 19.166 14.9651 19.166 15.3333C19.166 15.7015 19.4645 16 19.8327 16Z" fill="#666666"/>
<path d="M14.5007 18.6667C14.8688 18.6667 15.1673 18.3682 15.1673 18C15.1673 17.6318 14.8688 17.3333 14.5007 17.3333C14.1325 17.3333 13.834 17.6318 13.834 18C13.834 18.3682 14.1325 18.6667 14.5007 18.6667Z" fill="white"/>
<path d="M14.5007 18.6667C14.8688 18.6667 15.1673 18.3682 15.1673 18C15.1673 17.6318 14.8688 17.3333 14.5007 17.3333C14.1325 17.3333 13.834 17.6318 13.834 18C13.834 18.3682 14.1325 18.6667 14.5007 18.6667Z" fill="#666666"/>
<path d="M23.8327 18.6667C24.2009 18.6667 24.4993 18.3682 24.4993 18C24.4993 17.6318 24.2009 17.3333 23.8327 17.3333C23.4645 17.3333 23.166 17.6318 23.166 18C23.166 18.3682 23.4645 18.6667 23.8327 18.6667Z" fill="white"/>
<path d="M23.8327 18.6667C24.2009 18.6667 24.4993 18.3682 24.4993 18C24.4993 17.6318 24.2009 17.3333 23.8327 17.3333C23.4645 17.3333 23.166 17.6318 23.166 18C23.166 18.3682 23.4645 18.6667 23.8327 18.6667Z" fill="#666666"/>
<path d="M9.16667 18.6667C9.53486 18.6667 9.83333 18.3682 9.83333 18C9.83333 17.6318 9.53486 17.3333 9.16667 17.3333C8.79848 17.3333 8.5 17.6318 8.5 18C8.5 18.3682 8.79848 18.6667 9.16667 18.6667Z" fill="white"/>
<path d="M9.16667 18.6667C9.53486 18.6667 9.83333 18.3682 9.83333 18C9.83333 17.6318 9.53486 17.3333 9.16667 17.3333C8.79848 17.3333 8.5 17.6318 8.5 18C8.5 18.3682 8.79848 18.6667 9.16667 18.6667Z" fill="#666666"/>
</g>
</svg>
