<svg width="33" height="32" viewBox="0 0 33 32" fill="none" xmlns="http://www.w3.org/2000/svg">
<g opacity="0.5">
<path d="M29.8327 16C29.8327 23.3637 23.8631 29.3333 16.4993 29.3333C9.13555 29.3333 3.16602 23.3637 3.16602 16C3.16602 8.6362 9.13555 2.66667 16.4993 2.66667C23.8631 2.66667 29.8327 8.6362 29.8327 16Z" fill="white"/>
<path d="M29.8327 16C29.8327 23.3637 23.8631 29.3333 16.4993 29.3333C9.13555 29.3333 3.16602 23.3637 3.16602 16C3.16602 8.6362 9.13555 2.66667 16.4993 2.66667C23.8631 2.66667 29.8327 8.6362 29.8327 16Z" fill="#CCCCCC"/>
<path fill-rule="evenodd" clip-rule="evenodd" d="M16.5007 4C9.87324 4 4.50065 9.37258 4.50065 16C4.50065 22.6275 9.87324 28 16.5007 28C23.1281 28 28.5006 22.6275 28.5006 16C28.5006 9.37258 23.1281 4 16.5007 4ZM1.83398 16C1.83398 7.89983 8.40048 1.33333 16.5007 1.33333C24.6008 1.33333 31.1673 7.89983 31.1673 16C31.1673 24.1001 24.6008 30.6667 16.5007 30.6667C8.40048 30.6667 1.83398 24.1001 1.83398 16Z" fill="white"/>
<path fill-rule="evenodd" clip-rule="evenodd" d="M16.5007 4C9.87324 4 4.50065 9.37258 4.50065 16C4.50065 22.6275 9.87324 28 16.5007 28C23.1281 28 28.5006 22.6275 28.5006 16C28.5006 9.37258 23.1281 4 16.5007 4ZM1.83398 16C1.83398 7.89983 8.40048 1.33333 16.5007 1.33333C24.6008 1.33333 31.1673 7.89983 31.1673 16C31.1673 24.1001 24.6008 30.6667 16.5007 30.6667C8.40048 30.6667 1.83398 24.1001 1.83398 16Z" fill="#333333"/>
<path d="M20.5007 12C21.9734 12 23.1673 10.8061 23.1673 9.33333C23.1673 7.86058 21.9734 6.66667 20.5007 6.66667C19.0279 6.66667 17.834 7.86058 17.834 9.33333C17.834 10.8061 19.0279 12 20.5007 12Z" fill="white"/>
<path d="M20.5007 12C21.9734 12 23.1673 10.8061 23.1673 9.33333C23.1673 7.86058 21.9734 6.66667 20.5007 6.66667C19.0279 6.66667 17.834 7.86058 17.834 9.33333C17.834 10.8061 19.0279 12 20.5007 12Z" fill="#666666"/>
<path d="M17.8327 18.6667C19.3054 18.6667 20.4993 17.4728 20.4993 16C20.4993 14.5272 19.3054 13.3333 17.8327 13.3333C16.3599 13.3333 15.166 14.5272 15.166 16C15.166 17.4728 16.3599 18.6667 17.8327 18.6667Z" fill="white"/>
<path d="M17.8327 18.6667C19.3054 18.6667 20.4993 17.4728 20.4993 16C20.4993 14.5272 19.3054 13.3333 17.8327 13.3333C16.3599 13.3333 15.166 14.5272 15.166 16C15.166 17.4728 16.3599 18.6667 17.8327 18.6667Z" fill="#666666"/>
<path d="M24.5007 22.6667C25.9734 22.6667 27.1673 21.4728 27.1673 20C27.1673 18.5272 25.9734 17.3333 24.5007 17.3333C23.0279 17.3333 21.834 18.5272 21.834 20C21.834 21.4728 23.0279 22.6667 24.5007 22.6667Z" fill="white"/>
<path d="M24.5007 22.6667C25.9734 22.6667 27.1673 21.4728 27.1673 20C27.1673 18.5272 25.9734 17.3333 24.5007 17.3333C23.0279 17.3333 21.834 18.5272 21.834 20C21.834 21.4728 23.0279 22.6667 24.5007 22.6667Z" fill="#666666"/>
<path d="M13.8327 26.6667C15.3054 26.6667 16.4993 25.4728 16.4993 24C16.4993 22.5272 15.3054 21.3333 13.8327 21.3333C12.3599 21.3333 11.166 22.5272 11.166 24C11.166 25.4728 12.3599 26.6667 13.8327 26.6667Z" fill="white"/>
<path d="M13.8327 26.6667C15.3054 26.6667 16.4993 25.4728 16.4993 24C16.4993 22.5272 15.3054 21.3333 13.8327 21.3333C12.3599 21.3333 11.166 22.5272 11.166 24C11.166 25.4728 12.3599 26.6667 13.8327 26.6667Z" fill="#666666"/>
<path d="M8.50065 20C9.97341 20 11.1673 18.8061 11.1673 17.3333C11.1673 15.8606 9.97341 14.6667 8.50065 14.6667C7.02789 14.6667 5.83398 15.8606 5.83398 17.3333C5.83398 18.8061 7.02789 20 8.50065 20Z" fill="white"/>
<path d="M8.50065 20C9.97341 20 11.1673 18.8061 11.1673 17.3333C11.1673 15.8606 9.97341 14.6667 8.50065 14.6667C7.02789 14.6667 5.83398 15.8606 5.83398 17.3333C5.83398 18.8061 7.02789 20 8.50065 20Z" fill="#666666"/>
<path d="M11.1667 12C12.6394 12 13.8333 10.8061 13.8333 9.33333C13.8333 7.86058 12.6394 6.66667 11.1667 6.66667C9.69391 6.66667 8.5 7.86058 8.5 9.33333C8.5 10.8061 9.69391 12 11.1667 12Z" fill="white"/>
<path d="M11.1667 12C12.6394 12 13.8333 10.8061 13.8333 9.33333C13.8333 7.86058 12.6394 6.66667 11.1667 6.66667C9.69391 6.66667 8.5 7.86058 8.5 9.33333C8.5 10.8061 9.69391 12 11.1667 12Z" fill="#666666"/>
<path d="M22.5007 16C22.8688 16 23.1673 15.7015 23.1673 15.3333C23.1673 14.9651 22.8688 14.6667 22.5007 14.6667C22.1325 14.6667 21.834 14.9651 21.834 15.3333C21.834 15.7015 22.1325 16 22.5007 16Z" fill="black"/>
<path d="M15.8327 12C16.2009 12 16.4993 11.7015 16.4993 11.3333C16.4993 10.9651 16.2009 10.6667 15.8327 10.6667C15.4645 10.6667 15.166 10.9651 15.166 11.3333C15.166 11.7015 15.4645 12 15.8327 12Z" fill="black"/>
<path d="M7.83268 13.3333C8.20087 13.3333 8.49935 13.0349 8.49935 12.6667C8.49935 12.2985 8.20087 12 7.83268 12C7.46449 12 7.16602 12.2985 7.16602 12.6667C7.16602 13.0349 7.46449 13.3333 7.83268 13.3333Z" fill="black"/>
<path d="M13.1667 20C13.5349 20 13.8333 19.7015 13.8333 19.3333C13.8333 18.9651 13.5349 18.6667 13.1667 18.6667C12.7985 18.6667 12.5 18.9651 12.5 19.3333C12.5 19.7015 12.7985 20 13.1667 20Z" fill="black"/>
<path d="M7.83268 22.6667C8.20087 22.6667 8.49935 22.3682 8.49935 22C8.49935 21.6318 8.20087 21.3333 7.83268 21.3333C7.46449 21.3333 7.16602 21.6318 7.16602 22C7.16602 22.3682 7.46449 22.6667 7.83268 22.6667Z" fill="black"/>
<path d="M18.5007 26.6667C18.8688 26.6667 19.1673 26.3682 19.1673 26C19.1673 25.6318 18.8688 25.3333 18.5007 25.3333C18.1325 25.3333 17.834 25.6318 17.834 26C17.834 26.3682 18.1325 26.6667 18.5007 26.6667Z" fill="black"/>
<path fill-rule="evenodd" clip-rule="evenodd" d="M12.1559 14.7939C12.0606 14.4383 11.695 14.2272 11.3394 14.3224C10.9837 14.4177 10.6182 14.2067 10.5229 13.8511C10.4276 13.4955 10.6386 13.1299 10.9943 13.0346C12.0612 12.7487 13.1579 13.3819 13.4438 14.4488C13.7297 15.5157 13.0965 16.6124 12.0296 16.8983C11.6739 16.9936 11.3084 16.7825 11.2131 16.4268C11.1178 16.0712 11.3288 15.7056 11.6845 15.6104C12.0401 15.5151 12.2512 15.1495 12.1559 14.7939Z" fill="white"/>
<path fill-rule="evenodd" clip-rule="evenodd" d="M12.1559 14.7939C12.0606 14.4383 11.695 14.2272 11.3394 14.3224C10.9837 14.4177 10.6182 14.2067 10.5229 13.8511C10.4276 13.4955 10.6386 13.1299 10.9943 13.0346C12.0612 12.7487 13.1579 13.3819 13.4438 14.4488C13.7297 15.5157 13.0965 16.6124 12.0296 16.8983C11.6739 16.9936 11.3084 16.7825 11.2131 16.4268C11.1178 16.0712 11.3288 15.7056 11.6845 15.6104C12.0401 15.5151 12.2512 15.1495 12.1559 14.7939Z" fill="#999999"/>
<path fill-rule="evenodd" clip-rule="evenodd" d="M16.1558 6.79387C16.0606 6.43823 15.695 6.22717 15.3394 6.32247C14.9837 6.41776 14.6182 6.20671 14.5229 5.85107C14.4276 5.49541 14.6386 5.12985 14.9942 5.03456C16.0612 4.74868 17.158 5.38184 17.4438 6.44877C17.7297 7.51571 17.0965 8.61239 16.0296 8.89827C15.674 8.99356 15.3084 8.78251 15.213 8.42687C15.1178 8.07121 15.3289 7.70567 15.6845 7.61037C16.0401 7.51507 16.2512 7.14952 16.1558 6.79387Z" fill="white"/>
<path fill-rule="evenodd" clip-rule="evenodd" d="M16.1558 6.79387C16.0606 6.43823 15.695 6.22717 15.3394 6.32247C14.9837 6.41776 14.6182 6.20671 14.5229 5.85107C14.4276 5.49541 14.6386 5.12985 14.9942 5.03456C16.0612 4.74868 17.158 5.38184 17.4438 6.44877C17.7297 7.51571 17.0965 8.61239 16.0296 8.89827C15.674 8.99356 15.3084 8.78251 15.213 8.42687C15.1178 8.07121 15.3289 7.70567 15.6845 7.61037C16.0401 7.51507 16.2512 7.14952 16.1558 6.79387Z" fill="#999999"/>
<path fill-rule="evenodd" clip-rule="evenodd" d="M18.8215 21.4605C18.9167 21.1049 19.2823 20.8939 19.6379 20.9891C19.9936 21.0844 20.3591 20.8733 20.4544 20.5177C20.5497 20.1621 20.3387 19.7965 19.9831 19.7012C18.9161 19.4153 17.8193 20.0485 17.5335 21.1155C17.2476 22.1824 17.8808 23.2791 18.9477 23.5649C19.3033 23.6603 19.6689 23.4492 19.7643 23.0935C19.8595 22.7379 19.6484 22.3723 19.2928 22.2771C18.9372 22.1817 18.7261 21.8161 18.8215 21.4605Z" fill="white"/>
<path fill-rule="evenodd" clip-rule="evenodd" d="M18.8215 21.4605C18.9167 21.1049 19.2823 20.8939 19.6379 20.9891C19.9936 21.0844 20.3591 20.8733 20.4544 20.5177C20.5497 20.1621 20.3387 19.7965 19.9831 19.7012C18.9161 19.4153 17.8193 20.0485 17.5335 21.1155C17.2476 22.1824 17.8808 23.2791 18.9477 23.5649C19.3033 23.6603 19.6689 23.4492 19.7643 23.0935C19.8595 22.7379 19.6484 22.3723 19.2928 22.2771C18.9372 22.1817 18.7261 21.8161 18.8215 21.4605Z" fill="#999999"/>
<path fill-rule="evenodd" clip-rule="evenodd" d="M25.4894 13.4605C25.5846 13.1049 25.9502 12.8938 26.3058 12.9891C26.6616 13.0844 27.027 12.8734 27.1224 12.5177C27.2177 12.1621 27.0066 11.7965 26.651 11.7012C25.5841 11.4153 24.4873 12.0485 24.2014 13.1154C23.9156 14.1824 24.5488 15.2791 25.6157 15.5649C25.9713 15.6603 26.3369 15.4492 26.4322 15.0935C26.5274 14.7379 26.3164 14.3723 25.9608 14.2771C25.6052 14.1817 25.3941 13.8161 25.4894 13.4605Z" fill="white"/>
<path fill-rule="evenodd" clip-rule="evenodd" d="M25.4894 13.4605C25.5846 13.1049 25.9502 12.8938 26.3058 12.9891C26.6616 13.0844 27.027 12.8734 27.1224 12.5177C27.2177 12.1621 27.0066 11.7965 26.651 11.7012C25.5841 11.4153 24.4873 12.0485 24.2014 13.1154C23.9156 14.1824 24.5488 15.2791 25.6157 15.5649C25.9713 15.6603 26.3369 15.4492 26.4322 15.0935C26.5274 14.7379 26.3164 14.3723 25.9608 14.2771C25.6052 14.1817 25.3941 13.8161 25.4894 13.4605Z" fill="#999999"/>
</g>
</svg>
