<svg width="24" height="25" viewBox="0 0 24 25" fill="none" xmlns="http://www.w3.org/2000/svg">
<path d="M22 12.5C22 18.0228 17.5228 22.5 12 22.5C6.47715 22.5 2 18.0228 2 12.5C2 6.97715 6.47715 2.5 12 2.5C17.5228 2.5 22 6.97715 22 12.5Z" fill="#FFCD71"/>
<path fill-rule="evenodd" clip-rule="evenodd" d="M12 3.5C7.02944 3.5 3 7.52944 3 12.5C3 17.4706 7.02944 21.5 12 21.5C16.9706 21.5 21 17.4706 21 12.5C21 7.52944 16.9706 3.5 12 3.5ZM1 12.5C1 6.42487 5.92487 1.5 12 1.5C18.0751 1.5 23 6.42487 23 12.5C23 18.5751 18.0751 23.5 12 23.5C5.92487 23.5 1 18.5751 1 12.5Z" fill="#D26517"/>
<path d="M15 9.5C16.1046 9.5 17 8.60457 17 7.5C17 6.39543 16.1046 5.5 15 5.5C13.8954 5.5 13 6.39543 13 7.5C13 8.60457 13.8954 9.5 15 9.5Z" fill="#D71A1A"/>
<path d="M13 14.5C14.1046 14.5 15 13.6046 15 12.5C15 11.3954 14.1046 10.5 13 10.5C11.8954 10.5 11 11.3954 11 12.5C11 13.6046 11.8954 14.5 13 14.5Z" fill="#D71A1A"/>
<path d="M18 17.5C19.1046 17.5 20 16.6046 20 15.5C20 14.3954 19.1046 13.5 18 13.5C16.8954 13.5 16 14.3954 16 15.5C16 16.6046 16.8954 17.5 18 17.5Z" fill="#D71A1A"/>
<path d="M10 20.5C11.1046 20.5 12 19.6046 12 18.5C12 17.3954 11.1046 16.5 10 16.5C8.89543 16.5 8 17.3954 8 18.5C8 19.6046 8.89543 20.5 10 20.5Z" fill="#D71A1A"/>
<path d="M6 15.5C7.10457 15.5 8 14.6046 8 13.5C8 12.3954 7.10457 11.5 6 11.5C4.89543 11.5 4 12.3954 4 13.5C4 14.6046 4.89543 15.5 6 15.5Z" fill="#D71A1A"/>
<path d="M8 9.5C9.10457 9.5 10 8.60457 10 7.5C10 6.39543 9.10457 5.5 8 5.5C6.89543 5.5 6 6.39543 6 7.5C6 8.60457 6.89543 9.5 8 9.5Z" fill="#D71A1A"/>
<path d="M16.5 12.5C16.7761 12.5 17 12.2761 17 12C17 11.7239 16.7761 11.5 16.5 11.5C16.2239 11.5 16 11.7239 16 12C16 12.2761 16.2239 12.5 16.5 12.5Z" fill="black"/>
<path d="M11.5 9.5C11.7761 9.5 12 9.27614 12 9C12 8.72386 11.7761 8.5 11.5 8.5C11.2239 8.5 11 8.72386 11 9C11 9.27614 11.2239 9.5 11.5 9.5Z" fill="black"/>
<path d="M5.5 10.5C5.77614 10.5 6 10.2761 6 10C6 9.72386 5.77614 9.5 5.5 9.5C5.22386 9.5 5 9.72386 5 10C5 10.2761 5.22386 10.5 5.5 10.5Z" fill="black"/>
<path d="M9.5 15.5C9.77614 15.5 10 15.2761 10 15C10 14.7239 9.77614 14.5 9.5 14.5C9.22386 14.5 9 14.7239 9 15C9 15.2761 9.22386 15.5 9.5 15.5Z" fill="black"/>
<path d="M5.5 17.5C5.77614 17.5 6 17.2761 6 17C6 16.7239 5.77614 16.5 5.5 16.5C5.22386 16.5 5 16.7239 5 17C5 17.2761 5.22386 17.5 5.5 17.5Z" fill="black"/>
<path d="M13.5 20.5C13.7761 20.5 14 20.2761 14 20C14 19.7239 13.7761 19.5 13.5 19.5C13.2239 19.5 13 19.7239 13 20C13 20.2761 13.2239 20.5 13.5 20.5Z" fill="black"/>
<path fill-rule="evenodd" clip-rule="evenodd" d="M8.74191 11.5954C8.67044 11.3287 8.39627 11.1704 8.12954 11.2418C7.8628 11.3133 7.58863 11.155 7.51716 10.8883C7.44569 10.6216 7.60398 10.3474 7.87072 10.2759C8.67092 10.0615 9.49342 10.5364 9.70783 11.3366C9.92225 12.1368 9.44737 12.9593 8.64717 13.1737C8.38044 13.2452 8.10627 13.0869 8.0348 12.8201C7.96333 12.5534 8.12162 12.2792 8.38836 12.2078C8.65509 12.1363 8.81338 11.8621 8.74191 11.5954Z" fill="#5FAA46"/>
<path fill-rule="evenodd" clip-rule="evenodd" d="M11.7419 5.59539C11.6705 5.32866 11.3963 5.17037 11.1296 5.24184C10.8628 5.31331 10.5887 5.15502 10.5172 4.88829C10.4457 4.62155 10.604 4.34738 10.8707 4.27591C11.6709 4.0615 12.4935 4.53637 12.7079 5.33657C12.9223 6.13677 12.4474 6.95928 11.6472 7.17369C11.3805 7.24516 11.1063 7.08687 11.0348 6.82014C10.9634 6.5534 11.1217 6.27924 11.3884 6.20777C11.6551 6.13629 11.8134 5.86213 11.7419 5.59539Z" fill="#5FAA46"/>
<path fill-rule="evenodd" clip-rule="evenodd" d="M13.7421 16.5954C13.8135 16.3287 14.0877 16.1704 14.3544 16.2418C14.6212 16.3133 14.8953 16.155 14.9668 15.8883C15.0383 15.6216 14.88 15.3474 14.6133 15.2759C13.8131 15.0615 12.9905 15.5364 12.7761 16.3366C12.5617 17.1368 13.0366 17.9593 13.8368 18.1737C14.1035 18.2452 14.3777 18.0869 14.4492 17.8201C14.5206 17.5534 14.3623 17.2792 14.0956 17.2078C13.8289 17.1363 13.6706 16.8621 13.7421 16.5954Z" fill="#5FAA46"/>
<path fill-rule="evenodd" clip-rule="evenodd" d="M18.7421 10.5954C18.8135 10.3287 19.0877 10.1704 19.3544 10.2418C19.6212 10.3133 19.8953 10.155 19.9668 9.88829C20.0383 9.62155 19.88 9.34738 19.6133 9.27591C18.8131 9.0615 17.9905 9.53637 17.7761 10.3366C17.5617 11.1368 18.0366 11.9593 18.8368 12.1737C19.1035 12.2452 19.3777 12.0869 19.4492 11.8201C19.5206 11.5534 19.3623 11.2792 19.0956 11.2078C18.8289 11.1363 18.6706 10.8621 18.7421 10.5954Z" fill="#5FAA46"/>
</svg>
