<svg width="33" height="32" viewBox="0 0 33 32" fill="none" xmlns="http://www.w3.org/2000/svg">
<g opacity="0.5">
<path d="M29.8327 16C29.8327 23.3637 23.8631 29.3333 16.4993 29.3333C9.13555 29.3333 3.16602 23.3637 3.16602 16C3.16602 8.63619 9.13555 2.66666 16.4993 2.66666C23.8631 2.66666 29.8327 8.63619 29.8327 16Z" fill="white"/>
<path fill-rule="evenodd" clip-rule="evenodd" d="M16.5007 4.00001C9.87324 4.00001 4.50065 9.3726 4.50065 16C4.50065 22.6275 9.87324 28 16.5007 28C23.1281 28 28.5006 22.6275 28.5006 16C28.5006 9.3726 23.1281 4.00001 16.5007 4.00001ZM1.83398 16C1.83398 7.89984 8.40048 1.33334 16.5007 1.33334C24.6008 1.33334 31.1673 7.89984 31.1673 16C31.1673 24.1001 24.6008 30.6667 16.5007 30.6667C8.40048 30.6667 1.83398 24.1001 1.83398 16Z" fill="white"/>
<path fill-rule="evenodd" clip-rule="evenodd" d="M16.5007 4.00001C9.87324 4.00001 4.50065 9.3726 4.50065 16C4.50065 22.6275 9.87324 28 16.5007 28C23.1281 28 28.5006 22.6275 28.5006 16C28.5006 9.3726 23.1281 4.00001 16.5007 4.00001ZM1.83398 16C1.83398 7.89984 8.40048 1.33334 16.5007 1.33334C24.6008 1.33334 31.1673 7.89984 31.1673 16C31.1673 24.1001 24.6008 30.6667 16.5007 30.6667C8.40048 30.6667 1.83398 24.1001 1.83398 16Z" fill="#333333"/>
<path d="M11.5152 23.9689C16.6525 24.4201 17.8679 19.8511 17.8333 17.51C17.4253 15.4121 17.4249 15.4115 16.1595 13.5347L16.1576 13.532C15.3155 12.2829 19.3455 8.80212 14.3359 6.94751C9.00396 4.97356 6.48965 13.9939 6.11083 15.6552C5.59935 17.8981 5.09341 23.4048 11.5152 23.9689Z" fill="white"/>
<path d="M11.5152 23.9689C16.6525 24.4201 17.8679 19.8511 17.8333 17.51C17.4253 15.4121 17.4249 15.4115 16.1595 13.5347L16.1576 13.532C15.3155 12.2829 19.3455 8.80212 14.3359 6.94751C9.00396 4.97356 6.48965 13.9939 6.11083 15.6552C5.59935 17.8981 5.09341 23.4048 11.5152 23.9689Z" fill="#E4E4E4"/>
<path d="M11.4627 22.6568C14.5657 22.8583 16.6363 19.9333 16.4923 18.1897C16.3743 16.7632 14.972 15.5032 14.5693 14.1576C14.1337 12.7026 16.6328 9.12141 13.6923 8.12829C10.5626 7.07127 8.00368 12.8272 7.35576 15.0907C6.9038 16.6695 6.90987 22.3612 11.4627 22.6568Z" fill="white"/>
<path d="M11.4627 22.6568C14.5657 22.8583 16.6363 19.9333 16.4923 18.1897C16.3743 16.7632 14.972 15.5032 14.5693 14.1576C14.1337 12.7026 16.6328 9.12141 13.6923 8.12829C10.5626 7.07127 8.00368 12.8272 7.35576 15.0907C6.9038 16.6695 6.90987 22.3612 11.4627 22.6568Z" fill="#999999"/>
<path d="M12.4993 20C13.2357 20 13.8327 19.4031 13.8327 18.6667C13.8327 17.9303 13.2357 17.3333 12.4993 17.3333C11.763 17.3333 11.166 17.9303 11.166 18.6667C11.166 19.4031 11.763 20 12.4993 20Z" fill="white"/>
<path d="M17.834 13.3333C17.834 10.667 20.2788 6.66666 21.834 6.66666C23.3892 6.66666 25.834 10.667 25.834 13.3333C25.834 16.5833 24.4665 19.1108 23.5197 19.9996C25.1673 21.3333 25.1767 23.3329 24.9398 23.9996C23.8037 23.9996 21.834 23.1277 21.834 21.3333C20.9021 23.9996 19.2116 23.9996 18.5012 23.9996C18.5012 22.9329 18.3221 20.6671 20.5007 20C19.1673 19.3333 17.834 16.6667 17.834 13.3333Z" fill="white"/>
<path d="M17.834 13.3333C17.834 10.667 20.2788 6.66666 21.834 6.66666C23.3892 6.66666 25.834 10.667 25.834 13.3333C25.834 16.5833 24.4665 19.1108 23.5197 19.9996C25.1673 21.3333 25.1767 23.3329 24.9398 23.9996C23.8037 23.9996 21.834 23.1277 21.834 21.3333C20.9021 23.9996 19.2116 23.9996 18.5012 23.9996C18.5012 22.9329 18.3221 20.6671 20.5007 20C19.1673 19.3333 17.834 16.6667 17.834 13.3333Z" fill="#999999"/>
<path d="M22.5007 10.6667C22.8688 10.6667 23.1673 10.3682 23.1673 10C23.1673 9.63182 22.8688 9.33334 22.5007 9.33334C22.1325 9.33334 21.834 9.63182 21.834 10C21.834 10.3682 22.1325 10.6667 22.5007 10.6667Z" fill="white"/>
</g>
</svg>
