<svg width="24" height="25" viewBox="0 0 24 25" fill="none" xmlns="http://www.w3.org/2000/svg">
<path d="M22 12.5C22 18.0228 17.5228 22.5 12 22.5C6.47715 22.5 2 18.0228 2 12.5C2 6.97715 6.47715 2.5 12 2.5C17.5228 2.5 22 6.97715 22 12.5Z" fill="white"/>
<path fill-rule="evenodd" clip-rule="evenodd" d="M12 3.5C7.02944 3.5 3 7.52944 3 12.5C3 17.4706 7.02944 21.5 12 21.5C16.9706 21.5 21 17.4706 21 12.5C21 7.52944 16.9706 3.5 12 3.5ZM1 12.5C1 6.42487 5.92487 1.5 12 1.5C18.0751 1.5 23 6.42487 23 12.5C23 18.5751 18.0751 23.5 12 23.5C5.92487 23.5 1 18.5751 1 12.5Z" fill="white"/>
<path fill-rule="evenodd" clip-rule="evenodd" d="M12 3.5C7.02944 3.5 3 7.52944 3 12.5C3 17.4706 7.02944 21.5 12 21.5C16.9706 21.5 21 17.4706 21 12.5C21 7.52944 16.9706 3.5 12 3.5ZM1 12.5C1 6.42487 5.92487 1.5 12 1.5C18.0751 1.5 23 6.42487 23 12.5C23 18.5751 18.0751 23.5 12 23.5C5.92487 23.5 1 18.5751 1 12.5Z" fill="#999999"/>
<path d="M8.26088 18.4767C12.1139 18.8151 13.0254 15.3883 12.9995 13.6325C12.6935 12.0591 12.6932 12.0586 11.7441 10.651L11.7427 10.649C11.1111 9.71222 14.1336 7.1016 10.3764 5.71064C6.37748 4.23018 4.49175 10.9954 4.20763 12.2414C3.82402 13.9236 3.44457 18.0536 8.26088 18.4767Z" fill="#FFD7D4"/>
<path d="M8.22254 17.4926C10.5498 17.6437 12.1027 15.45 11.9947 14.1423C11.9062 13.0724 10.8545 12.1274 10.5525 11.1182C10.2258 10.027 12.1001 7.34106 9.89473 6.59622C7.54743 5.80346 5.62825 10.1204 5.14231 11.818C4.80334 13.0021 4.80789 17.2709 8.22254 17.4926Z" fill="#FF766D"/>
<path d="M9 15.5C9.55229 15.5 10 15.0523 10 14.5C10 13.9477 9.55229 13.5 9 13.5C8.44772 13.5 8 13.9477 8 14.5C8 15.0523 8.44772 15.5 9 15.5Z" fill="white"/>
<path d="M13 10.5C13 8.50025 14.8336 5.5 16 5.5C17.1664 5.5 19 8.50025 19 10.5C19 12.9375 17.9744 14.8331 17.2643 15.4997C18.5 16.5 18.507 17.9997 18.3294 18.4997C17.4773 18.4997 16 17.8458 16 16.5C15.3011 18.4997 14.0332 18.4997 13.5004 18.4997C13.5004 17.6997 13.3661 16.0003 15 15.5C14 15 13 13 13 10.5Z" fill="#A6BBD8"/>
<path d="M16.5 8.5C16.7761 8.5 17 8.27614 17 8C17 7.72386 16.7761 7.5 16.5 7.5C16.2239 7.5 16 7.72386 16 8C16 8.27614 16.2239 8.5 16.5 8.5Z" fill="white"/>
</svg>
