<svg width="33" height="32" viewBox="0 0 33 32" fill="none" xmlns="http://www.w3.org/2000/svg">
<g opacity="0.5">
<path d="M29.8327 16C29.8327 23.3637 23.8631 29.3333 16.4993 29.3333C9.13555 29.3333 3.16602 23.3637 3.16602 16C3.16602 8.6362 9.13555 2.66666 16.4993 2.66666C23.8631 2.66666 29.8327 8.6362 29.8327 16Z" fill="white"/>
<path d="M29.8327 16C29.8327 23.3637 23.8631 29.3333 16.4993 29.3333C9.13555 29.3333 3.16602 23.3637 3.16602 16C3.16602 8.6362 9.13555 2.66666 16.4993 2.66666C23.8631 2.66666 29.8327 8.6362 29.8327 16Z" fill="#999999"/>
<path fill-rule="evenodd" clip-rule="evenodd" d="M16.5007 4C9.87324 4 4.50065 9.37259 4.50065 16C4.50065 22.6275 9.87324 28 16.5007 28C23.1281 28 28.5006 22.6275 28.5006 16C28.5006 9.37259 23.1281 4 16.5007 4ZM1.83398 16C1.83398 7.89983 8.40048 1.33334 16.5007 1.33334C24.6008 1.33334 31.1673 7.89983 31.1673 16C31.1673 24.1001 24.6008 30.6667 16.5007 30.6667C8.40048 30.6667 1.83398 24.1001 1.83398 16Z" fill="white"/>
<path fill-rule="evenodd" clip-rule="evenodd" d="M16.5007 4C9.87324 4 4.50065 9.37259 4.50065 16C4.50065 22.6275 9.87324 28 16.5007 28C23.1281 28 28.5006 22.6275 28.5006 16C28.5006 9.37259 23.1281 4 16.5007 4ZM1.83398 16C1.83398 7.89983 8.40048 1.33334 16.5007 1.33334C24.6008 1.33334 31.1673 7.89983 31.1673 16C31.1673 24.1001 24.6008 30.6667 16.5007 30.6667C8.40048 30.6667 1.83398 24.1001 1.83398 16Z" fill="#333333"/>
<path d="M13.8327 25.3333C17.5146 25.3333 20.4993 22.3486 20.4993 18.6667C20.4993 14.9848 17.5146 12 13.8327 12C10.1508 12 7.16602 14.9848 7.16602 18.6667C7.16602 22.3486 10.1508 25.3333 13.8327 25.3333Z" fill="white"/>
<path d="M13.8327 25.3333C17.5146 25.3333 20.4993 22.3486 20.4993 18.6667C20.4993 14.9848 17.5146 12 13.8327 12C10.1508 12 7.16602 14.9848 7.16602 18.6667C7.16602 22.3486 10.1508 25.3333 13.8327 25.3333Z" fill="#CCCCCC"/>
<path d="M17.8333 8C18.5697 8 19.1667 7.40305 19.1667 6.66667C19.1667 5.93029 18.5697 5.33334 17.8333 5.33334C17.097 5.33334 16.5 5.93029 16.5 6.66667C16.5 7.40305 17.097 8 17.8333 8Z" fill="white"/>
<path d="M23.8327 12C24.2009 12 24.4993 11.7015 24.4993 11.3333C24.4993 10.9651 24.2009 10.6667 23.8327 10.6667C23.4645 10.6667 23.166 10.9651 23.166 11.3333C23.166 11.7015 23.4645 12 23.8327 12Z" fill="white"/>
<path d="M15.8327 16C16.2009 16 16.4993 15.7015 16.4993 15.3333C16.4993 14.9651 16.2009 14.6667 15.8327 14.6667C15.4645 14.6667 15.166 14.9651 15.166 15.3333C15.166 15.7015 15.4645 16 15.8327 16Z" fill="white"/>
<path d="M15.8327 16C16.2009 16 16.4993 15.7015 16.4993 15.3333C16.4993 14.9651 16.2009 14.6667 15.8327 14.6667C15.4645 14.6667 15.166 14.9651 15.166 15.3333C15.166 15.7015 15.4645 16 15.8327 16Z" fill="#666666"/>
<path d="M23.1673 21.3333C23.9037 21.3333 24.5007 20.7364 24.5007 20C24.5007 19.2636 23.9037 18.6667 23.1673 18.6667C22.4309 18.6667 21.834 19.2636 21.834 20C21.834 20.7364 22.4309 21.3333 23.1673 21.3333Z" fill="white"/>
<path d="M26.5007 16C26.8688 16 27.1673 15.7015 27.1673 15.3333C27.1673 14.9651 26.8688 14.6667 26.5007 14.6667C26.1325 14.6667 25.834 14.9651 25.834 15.3333C25.834 15.7015 26.1325 16 26.5007 16Z" fill="white"/>
<path d="M15.8327 21.3333C16.2009 21.3333 16.4993 21.0349 16.4993 20.6667C16.4993 20.2985 16.2009 20 15.8327 20C15.4645 20 15.166 20.2985 15.166 20.6667C15.166 21.0349 15.4645 21.3333 15.8327 21.3333Z" fill="white"/>
<path d="M15.8327 21.3333C16.2009 21.3333 16.4993 21.0349 16.4993 20.6667C16.4993 20.2985 16.2009 20 15.8327 20C15.4645 20 15.166 20.2985 15.166 20.6667C15.166 21.0349 15.4645 21.3333 15.8327 21.3333Z" fill="#666666"/>
<path d="M18.5007 12C18.8688 12 19.1673 11.7015 19.1673 11.3333C19.1673 10.9651 18.8688 10.6667 18.5007 10.6667C18.1325 10.6667 17.834 10.9651 17.834 11.3333C17.834 11.7015 18.1325 12 18.5007 12Z" fill="white"/>
<path d="M10.5007 17.3333C10.8688 17.3333 11.1673 17.0349 11.1673 16.6667C11.1673 16.2985 10.8688 16 10.5007 16C10.1325 16 9.83398 16.2985 9.83398 16.6667C9.83398 17.0349 10.1325 17.3333 10.5007 17.3333Z" fill="white"/>
<path d="M10.5007 17.3333C10.8688 17.3333 11.1673 17.0349 11.1673 16.6667C11.1673 16.2985 10.8688 16 10.5007 16C10.1325 16 9.83398 16.2985 9.83398 16.6667C9.83398 17.0349 10.1325 17.3333 10.5007 17.3333Z" fill="#666666"/>
<path d="M11.8327 9.33333C12.2009 9.33333 12.4993 9.03486 12.4993 8.66667C12.4993 8.29848 12.2009 8 11.8327 8C11.4645 8 11.166 8.29848 11.166 8.66667C11.166 9.03486 11.4645 9.33333 11.8327 9.33333Z" fill="white"/>
</g>
</svg>
