<svg width="24" height="25" viewBox="0 0 24 25" fill="none" xmlns="http://www.w3.org/2000/svg">
<path d="M22 12.5C22 18.0228 17.5228 22.5 12 22.5C6.47715 22.5 2 18.0228 2 12.5C2 6.97715 6.47715 2.5 12 2.5C17.5228 2.5 22 6.97715 22 12.5Z" fill="#CC7400"/>
<path fill-rule="evenodd" clip-rule="evenodd" d="M12 3.5C7.02944 3.5 3 7.52944 3 12.5C3 17.4706 7.02944 21.5 12 21.5C16.9706 21.5 21 17.4706 21 12.5C21 7.52944 16.9706 3.5 12 3.5ZM1 12.5C1 6.42487 5.92487 1.5 12 1.5C18.0751 1.5 23 6.42487 23 12.5C23 18.5751 18.0751 23.5 12 23.5C5.92487 23.5 1 18.5751 1 12.5Z" fill="#6F2F0F"/>
<path d="M10 19.5C12.7614 19.5 15 17.2614 15 14.5C15 11.7386 12.7614 9.5 10 9.5C7.23858 9.5 5 11.7386 5 14.5C5 17.2614 7.23858 19.5 10 19.5Z" fill="#FFCD71"/>
<path d="M13 6.5C13.5523 6.5 14 6.05228 14 5.5C14 4.94772 13.5523 4.5 13 4.5C12.4477 4.5 12 4.94772 12 5.5C12 6.05228 12.4477 6.5 13 6.5Z" fill="white"/>
<path d="M17.5 9.5C17.7761 9.5 18 9.27614 18 9C18 8.72386 17.7761 8.5 17.5 8.5C17.2239 8.5 17 8.72386 17 9C17 9.27614 17.2239 9.5 17.5 9.5Z" fill="white"/>
<path d="M11.5 12.5C11.7761 12.5 12 12.2761 12 12C12 11.7239 11.7761 11.5 11.5 11.5C11.2239 11.5 11 11.7239 11 12C11 12.2761 11.2239 12.5 11.5 12.5Z" fill="#99621A"/>
<path d="M17 16.5C17.5523 16.5 18 16.0523 18 15.5C18 14.9477 17.5523 14.5 17 14.5C16.4477 14.5 16 14.9477 16 15.5C16 16.0523 16.4477 16.5 17 16.5Z" fill="white"/>
<path d="M19.5 12.5C19.7761 12.5 20 12.2761 20 12C20 11.7239 19.7761 11.5 19.5 11.5C19.2239 11.5 19 11.7239 19 12C19 12.2761 19.2239 12.5 19.5 12.5Z" fill="white"/>
<path d="M11.5 16.5C11.7761 16.5 12 16.2761 12 16C12 15.7239 11.7761 15.5 11.5 15.5C11.2239 15.5 11 15.7239 11 16C11 16.2761 11.2239 16.5 11.5 16.5Z" fill="#99621A"/>
<path d="M13.5 9.5C13.7761 9.5 14 9.27614 14 9C14 8.72386 13.7761 8.5 13.5 8.5C13.2239 8.5 13 8.72386 13 9C13 9.27614 13.2239 9.5 13.5 9.5Z" fill="white"/>
<path d="M7.5 13.5C7.77614 13.5 8 13.2761 8 13C8 12.7239 7.77614 12.5 7.5 12.5C7.22386 12.5 7 12.7239 7 13C7 13.2761 7.22386 13.5 7.5 13.5Z" fill="#99621A"/>
<path d="M8.5 7.5C8.77614 7.5 9 7.27614 9 7C9 6.72386 8.77614 6.5 8.5 6.5C8.22386 6.5 8 6.72386 8 7C8 7.27614 8.22386 7.5 8.5 7.5Z" fill="white"/>
</svg>
