<svg width="24" height="25" viewBox="0 0 24 25" fill="none" xmlns="http://www.w3.org/2000/svg">
<path d="M22 12.5C22 18.0228 17.5228 22.5 12 22.5C6.47715 22.5 2 18.0228 2 12.5C2 6.97715 6.47715 2.5 12 2.5C17.5228 2.5 22 6.97715 22 12.5Z" fill="white"/>
<path fill-rule="evenodd" clip-rule="evenodd" d="M12 3.5C7.02944 3.5 3 7.52944 3 12.5C3 17.4706 7.02944 21.5 12 21.5C16.9706 21.5 21 17.4706 21 12.5C21 7.52944 16.9706 3.5 12 3.5ZM1 12.5C1 6.42487 5.92487 1.5 12 1.5C18.0751 1.5 23 6.42487 23 12.5C23 18.5751 18.0751 23.5 12 23.5C5.92487 23.5 1 18.5751 1 12.5Z" fill="#FFD700"/>
<path d="M16.5 7.5H14.5C13.3954 7.5 12.5 8.39543 12.5 9.5V15.5C12.5 16.6046 13.3954 17.5 14.5 17.5H16.5C17.6046 17.5 18.5 16.6046 18.5 15.5V9.5C18.5 8.39543 17.6046 7.5 16.5 7.5Z" fill="#FF8E20"/>
<mask id="mask0_702_8222" style="mask-type:alpha" maskUnits="userSpaceOnUse" x="12" y="7" width="7" height="11">
<path d="M16.5 7.5H14.5C13.3954 7.5 12.5 8.39543 12.5 9.5V15.5C12.5 16.6046 13.3954 17.5 14.5 17.5H16.5C17.6046 17.5 18.5 16.6046 18.5 15.5V9.5C18.5 8.39543 17.6046 7.5 16.5 7.5Z" fill="#FC9B3C"/>
</mask>
<g mask="url(#mask0_702_8222)">
<path fill-rule="evenodd" clip-rule="evenodd" d="M19.7245 7.94716L11.7245 11.9472L11.2773 11.0527L19.2773 7.05273L19.7245 7.94716Z" fill="#FFDEBD"/>
<path fill-rule="evenodd" clip-rule="evenodd" d="M19.7245 10.9472L11.7245 14.9472L11.2773 14.0527L19.2773 10.0527L19.7245 10.9472Z" fill="#FFDEBD"/>
<path fill-rule="evenodd" clip-rule="evenodd" d="M19.7245 13.9472L11.7245 17.9472L11.2773 17.0527L19.2773 13.0527L19.7245 13.9472Z" fill="#FFDEBD"/>
</g>
<path d="M9.5 7.5H7.5C6.39543 7.5 5.5 8.39543 5.5 9.5V15.5C5.5 16.6046 6.39543 17.5 7.5 17.5H9.5C10.6046 17.5 11.5 16.6046 11.5 15.5V9.5C11.5 8.39543 10.6046 7.5 9.5 7.5Z" fill="#FF766D"/>
<mask id="mask1_702_8222" style="mask-type:alpha" maskUnits="userSpaceOnUse" x="5" y="7" width="7" height="11">
<path d="M9.5 7.5H7.5C6.39543 7.5 5.5 8.39543 5.5 9.5V15.5C5.5 16.6046 6.39543 17.5 7.5 17.5H9.5C10.6046 17.5 11.5 16.6046 11.5 15.5V9.5C11.5 8.39543 10.6046 7.5 9.5 7.5Z" fill="#FC9B3C"/>
</mask>
<g mask="url(#mask1_702_8222)">
<path fill-rule="evenodd" clip-rule="evenodd" d="M12.7246 7.94716L4.72455 11.9472L4.27734 11.0527L12.2774 7.05273L12.7246 7.94716Z" fill="#FFD7D4"/>
<path fill-rule="evenodd" clip-rule="evenodd" d="M12.7246 10.9472L4.72455 14.9472L4.27734 14.0527L12.2774 10.0527L12.7246 10.9472Z" fill="#FFD7D4"/>
<path fill-rule="evenodd" clip-rule="evenodd" d="M12.7246 13.9472L4.72455 17.9472L4.27734 17.0527L12.2774 13.0527L12.7246 13.9472Z" fill="#FFD7D4"/>
</g>
</svg>
