<svg width="33" height="32" viewBox="0 0 33 32" fill="none" xmlns="http://www.w3.org/2000/svg">
<g opacity="0.5">
<path d="M29.8327 16C29.8327 23.3637 23.8631 29.3333 16.4993 29.3333C9.13555 29.3333 3.16602 23.3637 3.16602 16C3.16602 8.6362 9.13555 2.66667 16.4993 2.66667C23.8631 2.66667 29.8327 8.6362 29.8327 16Z" fill="white"/>
<path fill-rule="evenodd" clip-rule="evenodd" d="M16.5007 4C9.87324 4 4.50065 9.37259 4.50065 16C4.50065 22.6275 9.87324 28 16.5007 28C23.1281 28 28.5006 22.6275 28.5006 16C28.5006 9.37259 23.1281 4 16.5007 4ZM1.83398 16C1.83398 7.89983 8.40048 1.33333 16.5007 1.33333C24.6008 1.33333 31.1673 7.89983 31.1673 16C31.1673 24.1001 24.6008 30.6667 16.5007 30.6667C8.40048 30.6667 1.83398 24.1001 1.83398 16Z" fill="white"/>
<path fill-rule="evenodd" clip-rule="evenodd" d="M16.5007 4C9.87324 4 4.50065 9.37259 4.50065 16C4.50065 22.6275 9.87324 28 16.5007 28C23.1281 28 28.5006 22.6275 28.5006 16C28.5006 9.37259 23.1281 4 16.5007 4ZM1.83398 16C1.83398 7.89983 8.40048 1.33333 16.5007 1.33333C24.6008 1.33333 31.1673 7.89983 31.1673 16C31.1673 24.1001 24.6008 30.6667 16.5007 30.6667C8.40048 30.6667 1.83398 24.1001 1.83398 16Z" fill="#333333"/>
<path d="M22.4993 9.33333H19.8327C18.3599 9.33333 17.166 10.5272 17.166 12V20C17.166 21.4728 18.3599 22.6667 19.8327 22.6667H22.4993C23.9721 22.6667 25.166 21.4728 25.166 20V12C25.166 10.5272 23.9721 9.33333 22.4993 9.33333Z" fill="white"/>
<path d="M22.4993 9.33333H19.8327C18.3599 9.33333 17.166 10.5272 17.166 12V20C17.166 21.4728 18.3599 22.6667 19.8327 22.6667H22.4993C23.9721 22.6667 25.166 21.4728 25.166 20V12C25.166 10.5272 23.9721 9.33333 22.4993 9.33333Z" fill="#999999"/>
<mask id="mask0_757_3303" style="mask-type:alpha" maskUnits="userSpaceOnUse" x="17" y="9" width="9" height="14">
<path d="M22.4993 9.33333H19.8327C18.3599 9.33333 17.166 10.5272 17.166 12V20C17.166 21.4728 18.3599 22.6667 19.8327 22.6667H22.4993C23.9721 22.6667 25.166 21.4728 25.166 20V12C25.166 10.5272 23.9721 9.33333 22.4993 9.33333Z" fill="white"/>
<path d="M22.4993 9.33333H19.8327C18.3599 9.33333 17.166 10.5272 17.166 12V20C17.166 21.4728 18.3599 22.6667 19.8327 22.6667H22.4993C23.9721 22.6667 25.166 21.4728 25.166 20V12C25.166 10.5272 23.9721 9.33333 22.4993 9.33333Z" fill="#999999"/>
</mask>
<g mask="url(#mask0_757_3303)">
<path fill-rule="evenodd" clip-rule="evenodd" d="M26.7981 9.92955L16.1314 15.2629L15.5352 14.0703L26.2018 8.73697L26.7981 9.92955Z" fill="white"/>
<path fill-rule="evenodd" clip-rule="evenodd" d="M26.7981 9.92955L16.1314 15.2629L15.5352 14.0703L26.2018 8.73697L26.7981 9.92955Z" fill="#E4E4E4"/>
<path fill-rule="evenodd" clip-rule="evenodd" d="M26.7981 13.9296L16.1314 19.2629L15.5352 18.0703L26.2018 12.737L26.7981 13.9296Z" fill="white"/>
<path fill-rule="evenodd" clip-rule="evenodd" d="M26.7981 13.9296L16.1314 19.2629L15.5352 18.0703L26.2018 12.737L26.7981 13.9296Z" fill="#E4E4E4"/>
<path fill-rule="evenodd" clip-rule="evenodd" d="M26.7981 17.9296L16.1314 23.2629L15.5352 22.0703L26.2018 16.7369L26.7981 17.9296Z" fill="white"/>
<path fill-rule="evenodd" clip-rule="evenodd" d="M26.7981 17.9296L16.1314 23.2629L15.5352 22.0703L26.2018 16.7369L26.7981 17.9296Z" fill="#E4E4E4"/>
</g>
<path d="M13.1673 9.33333H10.5007C9.02789 9.33333 7.83398 10.5272 7.83398 12V20C7.83398 21.4728 9.02789 22.6667 10.5007 22.6667H13.1673C14.6401 22.6667 15.834 21.4728 15.834 20V12C15.834 10.5272 14.6401 9.33333 13.1673 9.33333Z" fill="white"/>
<path d="M13.1673 9.33333H10.5007C9.02789 9.33333 7.83398 10.5272 7.83398 12V20C7.83398 21.4728 9.02789 22.6667 10.5007 22.6667H13.1673C14.6401 22.6667 15.834 21.4728 15.834 20V12C15.834 10.5272 14.6401 9.33333 13.1673 9.33333Z" fill="#666666"/>
<mask id="mask1_757_3303" style="mask-type:alpha" maskUnits="userSpaceOnUse" x="7" y="9" width="9" height="14">
<path d="M13.1673 9.33333H10.5007C9.02789 9.33333 7.83398 10.5272 7.83398 12V20C7.83398 21.4728 9.02789 22.6667 10.5007 22.6667H13.1673C14.6401 22.6667 15.834 21.4728 15.834 20V12C15.834 10.5272 14.6401 9.33333 13.1673 9.33333Z" fill="#FC9B3C"/>
</mask>
<g mask="url(#mask1_757_3303)">
<path fill-rule="evenodd" clip-rule="evenodd" d="M17.4661 9.92955L6.7994 15.2629L6.20312 14.0703L16.8698 8.73697L17.4661 9.92955Z" fill="white"/>
<path fill-rule="evenodd" clip-rule="evenodd" d="M17.4661 9.92955L6.7994 15.2629L6.20312 14.0703L16.8698 8.73697L17.4661 9.92955Z" fill="#E4E4E4"/>
<path fill-rule="evenodd" clip-rule="evenodd" d="M17.4661 13.9296L6.7994 19.2629L6.20312 18.0703L16.8698 12.737L17.4661 13.9296Z" fill="white"/>
<path fill-rule="evenodd" clip-rule="evenodd" d="M17.4661 13.9296L6.7994 19.2629L6.20312 18.0703L16.8698 12.737L17.4661 13.9296Z" fill="#E4E4E4"/>
<path fill-rule="evenodd" clip-rule="evenodd" d="M17.4661 17.9296L6.7994 23.2629L6.20312 22.0703L16.8698 16.7369L17.4661 17.9296Z" fill="white"/>
<path fill-rule="evenodd" clip-rule="evenodd" d="M17.4661 17.9296L6.7994 23.2629L6.20312 22.0703L16.8698 16.7369L17.4661 17.9296Z" fill="#E4E4E4"/>
</g>
</g>
</svg>
