<svg width="24" height="25" viewBox="0 0 24 25" fill="none" xmlns="http://www.w3.org/2000/svg">
<path d="M14.5478 22.5C16.9899 21.8017 19.072 20.0966 20.3361 17.76C21.6002 15.4233 21.9428 12.6465 21.2884 10.0403C20.6341 7.4341 19.0364 5.21206 16.8469 3.86299C14.6574 2.51393 12.0554 2.14835 9.61328 2.84667L14.5478 22.5Z" fill="#FFDF87"/>
<path fill-rule="evenodd" clip-rule="evenodd" d="M8.48822 3.32778C11.0532 2.66766 13.7867 3.01274 16.0889 4.28942C18.3918 5.56643 20.0782 7.67341 20.7696 10.1519C21.4612 12.631 21.0985 15.2718 19.7642 17.4916C18.4304 19.7105 16.2372 21.324 13.672 21.9842L13.1974 22.1063L7.99414 3.45494L8.48822 3.32778ZM9.23529 4.18248L13.8938 20.8813C16.0078 20.2173 17.7945 18.8274 18.9071 16.9764C20.101 14.9902 20.4235 12.6327 19.8064 10.4206C19.1891 8.20796 17.6801 6.31526 15.604 5.16396C13.6752 4.09438 11.4067 3.74821 9.23529 4.18248Z" fill="#F2C069"/>
<path fill-rule="evenodd" clip-rule="evenodd" d="M8.49595 5.25649C10.6455 4.74017 12.9371 5.00933 14.8706 6.01004C16.805 7.01125 18.2337 8.66976 18.8211 10.635C19.4092 12.6027 19.0993 14.6974 17.9688 16.4527C16.8401 18.2053 14.9914 19.4698 12.8416 19.9862L12.3813 20.0967L7.98242 5.37984L8.49595 5.25649ZM9.24792 6.12183L13.0644 18.8901C14.7845 18.3698 16.2284 17.3081 17.128 15.9113C18.1044 14.3953 18.3654 12.6023 17.863 10.9214C17.3598 9.23796 16.1256 7.78562 14.4109 6.89814C12.8488 6.08963 11.0136 5.8161 9.24792 6.12183Z" fill="#F2C069"/>
<path fill-rule="evenodd" clip-rule="evenodd" d="M10.4751 7.19262C11.8331 6.80428 13.279 7.00865 14.4917 7.75582C15.7028 8.50209 16.5777 9.72513 16.9351 11.1484C17.2923 12.5713 17.1061 14.0882 16.4137 15.3679C15.721 16.6485 14.5741 17.5927 13.2173 17.9807L12.7207 18.1228L10.0098 7.32568L10.4751 7.19262ZM11.2225 8.04932L13.4309 16.845C14.3062 16.4684 15.0506 15.786 15.5342 14.8921C16.106 13.8352 16.2623 12.5752 15.9652 11.3919C15.6682 10.209 14.9454 9.21 13.9671 8.60719C13.131 8.09205 12.1636 7.89971 11.2225 8.04932Z" fill="#F2C069"/>
<path d="M11.6133 2.5C10.1678 2.5 8.73942 2.81339 7.42668 3.41857C6.11394 4.02375 4.94801 4.90634 4.00922 6.00552C3.07043 7.1047 2.3811 8.39435 1.98873 9.7856C1.59636 11.1768 1.51027 12.6366 1.7364 14.0643C1.96253 15.4921 2.4955 16.8538 3.29858 18.0557C4.10167 19.2576 5.15579 20.2711 6.3883 21.0264C7.6208 21.7817 9.00241 22.2608 10.4379 22.4307C11.8734 22.6006 13.3287 22.4573 14.7035 22.0106L11.6133 12.5V2.5Z" fill="#6F2F0F"/>
<path fill-rule="evenodd" clip-rule="evenodd" d="M12 3.5C7.02944 3.5 3 7.52944 3 12.5C3 17.4706 7.02944 21.5 12 21.5C16.9706 21.5 21 17.4706 21 12.5C21 7.52944 16.9706 3.5 12 3.5ZM1 12.5C1 6.42487 5.92487 1.5 12 1.5C18.0751 1.5 23 6.42487 23 12.5C23 18.5751 18.0751 23.5 12 23.5C5.92487 23.5 1 18.5751 1 12.5Z" fill="#D71A1A"/>
<path d="M12 17.5C14.7614 17.5 17 15.2614 17 12.5C17 9.73858 14.7614 7.5 12 7.5C9.23858 7.5 7 9.73858 7 12.5C7 15.2614 9.23858 17.5 12 17.5Z" fill="white"/>
<path d="M12.5 14.5C13.8807 14.5 15 13.3807 15 12C15 10.6193 13.8807 9.5 12.5 9.5C11.1193 9.5 10 10.6193 10 12C10 13.3807 11.1193 14.5 12.5 14.5Z" fill="#FFD700"/>
</svg>
