<svg width="33" height="32" viewBox="0 0 33 32" fill="none" xmlns="http://www.w3.org/2000/svg">
<g opacity="0.5">
<path d="M19.8977 29.3333C23.1539 28.4023 25.93 26.1288 27.6155 23.0133C29.3009 19.8977 29.7577 16.1953 28.8852 12.7204C28.0128 9.24547 25.8825 6.28275 22.9632 4.48399C20.0439 2.68524 16.5745 2.1978 13.3184 3.1289L19.8977 29.3333Z" fill="white"/>
<path d="M19.8977 29.3333C23.1539 28.4023 25.93 26.1288 27.6155 23.0133C29.3009 19.8977 29.7577 16.1953 28.8852 12.7204C28.0128 9.24547 25.8825 6.28275 22.9632 4.48399C20.0439 2.68524 16.5745 2.1978 13.3184 3.1289L19.8977 29.3333Z" fill="#CCCCCC"/>
<path fill-rule="evenodd" clip-rule="evenodd" d="M11.8189 3.77037C15.2389 2.89021 18.8836 3.35032 21.9532 5.05256C25.0237 6.75524 27.2722 9.56454 28.1941 12.8692C29.1162 16.1747 28.6327 19.6957 26.8536 22.6555C25.0752 25.614 22.1509 27.7653 18.7306 28.6456L18.0978 28.8084L11.1602 3.93992L11.8189 3.77037ZM12.815 4.90997L19.0264 27.1751C21.8451 26.2897 24.2273 24.4365 25.7108 21.9685C27.3027 19.3203 27.7327 16.1769 26.9099 13.2275C26.0868 10.2773 24.0748 7.75368 21.3067 6.21861C18.7349 4.7925 15.7102 4.33094 12.815 4.90997Z" fill="white"/>
<path fill-rule="evenodd" clip-rule="evenodd" d="M11.8189 3.77037C15.2389 2.89021 18.8836 3.35032 21.9532 5.05256C25.0237 6.75524 27.2722 9.56454 28.1941 12.8692C29.1162 16.1747 28.6327 19.6957 26.8536 22.6555C25.0752 25.614 22.1509 27.7653 18.7306 28.6456L18.0978 28.8084L11.1602 3.93992L11.8189 3.77037ZM12.815 4.90997L19.0264 27.1751C21.8451 26.2897 24.2273 24.4365 25.7108 21.9685C27.3027 19.3203 27.7327 16.1769 26.9099 13.2275C26.0868 10.2773 24.0748 7.75368 21.3067 6.21861C18.7349 4.7925 15.7102 4.33094 12.815 4.90997Z" fill="#999999"/>
<path fill-rule="evenodd" clip-rule="evenodd" d="M11.8292 6.34199C14.6953 5.65356 17.7508 6.01244 20.3288 7.34672C22.908 8.68167 24.8129 10.893 25.5961 13.5133C26.3803 16.1369 25.9671 18.9299 24.4597 21.2703C22.9548 23.6071 20.4899 25.2931 17.6235 25.9816L17.0097 26.1289L11.1445 6.50646L11.8292 6.34199ZM12.8319 7.49578L17.9205 24.5201C20.214 23.8264 22.1392 22.4108 23.3387 20.5484C24.6405 18.5271 24.9885 16.1364 24.3187 13.8952C23.6477 11.6506 22.0021 9.71416 19.7159 8.53086C17.6331 7.45284 15.1861 7.08814 12.8319 7.49578Z" fill="white"/>
<path fill-rule="evenodd" clip-rule="evenodd" d="M11.8292 6.34199C14.6953 5.65356 17.7508 6.01244 20.3288 7.34672C22.908 8.68167 24.8129 10.893 25.5961 13.5133C26.3803 16.1369 25.9671 18.9299 24.4597 21.2703C22.9548 23.6071 20.4899 25.2931 17.6235 25.9816L17.0097 26.1289L11.1445 6.50646L11.8292 6.34199ZM12.8319 7.49578L17.9205 24.5201C20.214 23.8264 22.1392 22.4108 23.3387 20.5484C24.6405 18.5271 24.9885 16.1364 24.3187 13.8952C23.6477 11.6506 22.0021 9.71416 19.7159 8.53086C17.6331 7.45284 15.1861 7.08814 12.8319 7.49578Z" fill="#999999"/>
<path fill-rule="evenodd" clip-rule="evenodd" d="M14.4681 8.92349C16.2787 8.4057 18.2066 8.6782 19.8235 9.67442C21.4383 10.6695 22.6049 12.3002 23.0814 14.1979C23.5577 16.0951 23.3094 18.1176 22.3862 19.8239C21.4626 21.5313 19.9334 22.7903 18.1243 23.3076L17.4622 23.4971L13.8477 9.1009L14.4681 8.92349ZM15.4646 10.0658L18.4091 21.7933C19.5762 21.2912 20.5687 20.3813 21.2135 19.1895C21.9759 17.7803 22.1843 16.1003 21.7882 14.5225C21.3922 12.9453 20.4285 11.6133 19.1241 10.8096C18.0093 10.1227 16.7194 9.86628 15.4646 10.0658Z" fill="white"/>
<path fill-rule="evenodd" clip-rule="evenodd" d="M14.4681 8.92349C16.2787 8.4057 18.2066 8.6782 19.8235 9.67442C21.4383 10.6695 22.6049 12.3002 23.0814 14.1979C23.5577 16.0951 23.3094 18.1176 22.3862 19.8239C21.4626 21.5313 19.9334 22.7903 18.1243 23.3076L17.4622 23.4971L13.8477 9.1009L14.4681 8.92349ZM15.4646 10.0658L18.4091 21.7933C19.5762 21.2912 20.5687 20.3813 21.2135 19.1895C21.9759 17.7803 22.1843 16.1003 21.7882 14.5225C21.3922 12.9453 20.4285 11.6133 19.1241 10.8096C18.0093 10.1227 16.7194 9.86628 15.4646 10.0658Z" fill="#999999"/>
<path d="M15.9837 2.66666C14.0564 2.66666 12.1519 3.08452 10.4016 3.89142C8.65127 4.69833 7.09669 5.87512 5.84497 7.34069C4.59325 8.80626 3.67415 10.5258 3.15099 12.3808C2.62783 14.2357 2.51304 16.1821 2.81455 18.0857C3.11605 19.9895 3.82668 21.8051 4.89745 23.4076C5.96824 25.0101 7.37373 26.3615 9.01708 27.3685C10.6604 28.3756 12.5026 29.0144 14.4165 29.2409C16.3305 29.4675 18.2709 29.2764 20.104 28.6808L15.9837 16V2.66666Z" fill="white"/>
<path d="M15.9837 2.66666C14.0564 2.66666 12.1519 3.08452 10.4016 3.89142C8.65127 4.69833 7.09669 5.87512 5.84497 7.34069C4.59325 8.80626 3.67415 10.5258 3.15099 12.3808C2.62783 14.2357 2.51304 16.1821 2.81455 18.0857C3.11605 19.9895 3.82668 21.8051 4.89745 23.4076C5.96824 25.0101 7.37373 26.3615 9.01708 27.3685C10.6604 28.3756 12.5026 29.0144 14.4165 29.2409C16.3305 29.4675 18.2709 29.2764 20.104 28.6808L15.9837 16V2.66666Z" fill="#666666"/>
<path fill-rule="evenodd" clip-rule="evenodd" d="M16.5007 4C9.87324 4 4.50065 9.37259 4.50065 16C4.50065 22.6275 9.87324 28 16.5007 28C23.1281 28 28.5006 22.6275 28.5006 16C28.5006 9.37259 23.1281 4 16.5007 4ZM1.83398 16C1.83398 7.89983 8.40048 1.33334 16.5007 1.33334C24.6008 1.33334 31.1673 7.89983 31.1673 16C31.1673 24.1001 24.6008 30.6667 16.5007 30.6667C8.40048 30.6667 1.83398 24.1001 1.83398 16Z" fill="white"/>
<path fill-rule="evenodd" clip-rule="evenodd" d="M16.5007 4C9.87324 4 4.50065 9.37259 4.50065 16C4.50065 22.6275 9.87324 28 16.5007 28C23.1281 28 28.5006 22.6275 28.5006 16C28.5006 9.37259 23.1281 4 16.5007 4ZM1.83398 16C1.83398 7.89983 8.40048 1.33334 16.5007 1.33334C24.6008 1.33334 31.1673 7.89983 31.1673 16C31.1673 24.1001 24.6008 30.6667 16.5007 30.6667C8.40048 30.6667 1.83398 24.1001 1.83398 16Z" fill="#333333"/>
<path d="M16.5007 22.6667C20.1825 22.6667 23.1673 19.6819 23.1673 16C23.1673 12.3181 20.1825 9.33334 16.5007 9.33334C12.8188 9.33334 9.83398 12.3181 9.83398 16C9.83398 19.6819 12.8188 22.6667 16.5007 22.6667Z" fill="white"/>
<path d="M17.1673 18.6667C19.0083 18.6667 20.5007 17.1743 20.5007 15.3333C20.5007 13.4924 19.0083 12 17.1673 12C15.3264 12 13.834 13.4924 13.834 15.3333C13.834 17.1743 15.3264 18.6667 17.1673 18.6667Z" fill="white"/>
<path d="M17.1673 18.6667C19.0083 18.6667 20.5007 17.1743 20.5007 15.3333C20.5007 13.4924 19.0083 12 17.1673 12C15.3264 12 13.834 13.4924 13.834 15.3333C13.834 17.1743 15.3264 18.6667 17.1673 18.6667Z" fill="#CCCCCC"/>
</g>
</svg>
