<svg width="50" height="50" viewBox="0 0 50 50" fill="none" xmlns="http://www.w3.org/2000/svg">
<g opacity="0.5">
<path d="M45.8333 25C45.8333 22.2642 45.2944 19.555 44.2475 17.0274C43.2004 14.4998 41.666 12.2032 39.7315 10.2686C37.7969 8.33405 35.5002 6.79947 32.9725 5.75249C30.445 4.70553 27.7358 4.16666 25 4.16666V25H45.8333Z" fill="white"/>
<path d="M45.8333 25C45.8333 22.2642 45.2944 19.555 44.2475 17.0274C43.2004 14.4998 41.666 12.2032 39.7315 10.2686C37.7969 8.33405 35.5002 6.79947 32.9725 5.75249C30.445 4.70553 27.7358 4.16666 25 4.16666V25H45.8333Z" fill="#666666"/>
<path d="M25 45.8333C27.7358 45.8333 30.445 45.2944 32.9725 44.2475C35.5002 43.2004 37.7969 41.666 39.7315 39.7315C41.666 37.7969 43.2004 35.5002 44.2475 32.9725C45.2944 30.445 45.8333 27.7358 45.8333 25H25V45.8333Z" fill="white"/>
<path d="M25 45.8333C27.7358 45.8333 30.445 45.2944 32.9725 44.2475C35.5002 43.2004 37.7969 41.666 39.7315 39.7315C41.666 37.7969 43.2004 35.5002 44.2475 32.9725C45.2944 30.445 45.8333 27.7358 45.8333 25H25V45.8333Z" fill="#CCCCCC"/>
<path d="M4.16666 25C4.16666 27.7358 4.70553 30.445 5.75251 32.9725C6.79947 35.5002 8.33405 37.7969 10.2686 39.7315C12.2032 41.666 14.4998 43.2004 17.0274 44.2475C19.555 45.2944 22.2642 45.8333 25 45.8333V25H4.16666Z" fill="white"/>
<path d="M4.16666 25C4.16666 27.7358 4.70553 30.445 5.75251 32.9725C6.79947 35.5002 8.33405 37.7969 10.2686 39.7315C12.2032 41.666 14.4998 43.2004 17.0274 44.2475C19.555 45.2944 22.2642 45.8333 25 45.8333V25H4.16666Z" fill="#999999"/>
<path d="M25 4.16666C22.2642 4.16666 19.555 4.70553 17.0274 5.75249C14.4998 6.79947 12.2032 8.33405 10.2686 10.2686C8.33405 12.2032 6.79947 14.4998 5.75249 17.0274C4.70553 19.555 4.16666 22.2642 4.16666 25H25V4.16666Z" fill="white"/>
<path d="M25 4.16666C22.2642 4.16666 19.555 4.70553 17.0274 5.75249C14.4998 6.79947 12.2032 8.33405 10.2686 10.2686C8.33405 12.2032 6.79947 14.4998 5.75249 17.0274C4.70553 19.555 4.16666 22.2642 4.16666 25H25V4.16666Z" fill="#E4E4E4"/>
<path fill-rule="evenodd" clip-rule="evenodd" d="M25 6.25001C14.6447 6.25001 6.25001 14.6447 6.25001 25C6.25001 35.3554 14.6447 43.75 25 43.75C35.3554 43.75 43.75 35.3554 43.75 25C43.75 14.6447 35.3554 6.25001 25 6.25001ZM2.08334 25C2.08334 12.3435 12.3435 2.08334 25 2.08334C37.6565 2.08334 47.9167 12.3435 47.9167 25C47.9167 37.6565 37.6565 47.9167 25 47.9167C12.3435 47.9167 2.08334 37.6565 2.08334 25Z" fill="white"/>
<path fill-rule="evenodd" clip-rule="evenodd" d="M25 6.25001C14.6447 6.25001 6.25001 14.6447 6.25001 25C6.25001 35.3554 14.6447 43.75 25 43.75C35.3554 43.75 43.75 35.3554 43.75 25C43.75 14.6447 35.3554 6.25001 25 6.25001ZM2.08334 25C2.08334 12.3435 12.3435 2.08334 25 2.08334C37.6565 2.08334 47.9167 12.3435 47.9167 25C47.9167 37.6565 37.6565 47.9167 25 47.9167C12.3435 47.9167 2.08334 37.6565 2.08334 25Z" fill="#333333"/>
<path d="M25 35.4167C30.753 35.4167 35.4167 30.753 35.4167 25C35.4167 19.247 30.753 14.5833 25 14.5833C19.247 14.5833 14.5833 19.247 14.5833 25C14.5833 30.753 19.247 35.4167 25 35.4167Z" fill="white"/>
<path d="M26.0417 29.1667C28.9182 29.1667 31.25 26.8348 31.25 23.9583C31.25 21.0819 28.9182 18.75 26.0417 18.75C23.1652 18.75 20.8333 21.0819 20.8333 23.9583C20.8333 26.8348 23.1652 29.1667 26.0417 29.1667Z" fill="white"/>
<path d="M26.0417 29.1667C28.9182 29.1667 31.25 26.8348 31.25 23.9583C31.25 21.0819 28.9182 18.75 26.0417 18.75C23.1652 18.75 20.8333 21.0819 20.8333 23.9583C20.8333 26.8348 23.1652 29.1667 26.0417 29.1667Z" fill="#CCCCCC"/>
</g>
</svg>
