<svg width="33" height="32" viewBox="0 0 33 32" fill="none" xmlns="http://www.w3.org/2000/svg">
<path d="M29.8333 16C29.8333 14.2491 29.4884 12.5152 28.8184 10.8976C28.1483 9.27989 27.1663 7.81003 25.9281 6.57191C24.69 5.3338 23.2201 4.35167 21.6024 3.68161C19.9848 3.01155 18.2509 2.66667 16.5 2.66667V16H29.8333Z" fill="#6F2F0F"/>
<path d="M16.5 29.3333C18.2509 29.3333 19.9848 28.9884 21.6024 28.3184C23.2201 27.6483 24.69 26.6663 25.9281 25.4281C27.1663 24.19 28.1483 22.7201 28.8184 21.1024C29.4884 19.4848 29.8333 17.7509 29.8333 16H16.5V29.3333Z" fill="#EF7324"/>
<path d="M3.16602 16C3.16602 17.7509 3.5109 19.4848 4.18096 21.1024C4.85102 22.7201 5.83315 24.19 7.07126 25.4281C8.30938 26.6663 9.77923 27.6483 11.3969 28.3184C13.0146 28.9884 14.7484 29.3333 16.4993 29.3333V16H3.16602Z" fill="#5FAA46"/>
<path d="M16.4993 2.66667C14.7484 2.66667 13.0146 3.01155 11.3969 3.68161C9.77923 4.35167 8.30938 5.3338 7.07126 6.57191C5.83315 7.81003 4.85102 9.27989 4.18095 10.8976C3.5109 12.5152 3.16602 14.2491 3.16602 16H16.4993V2.66667Z" fill="#FFCD71"/>
<path fill-rule="evenodd" clip-rule="evenodd" d="M16.5007 3.99999C9.87324 3.99999 4.50065 9.37258 4.50065 16C4.50065 22.6275 9.87324 28 16.5007 28C23.1281 28 28.5006 22.6275 28.5006 16C28.5006 9.37258 23.1281 3.99999 16.5007 3.99999ZM1.83398 16C1.83398 7.89982 8.40048 1.33333 16.5007 1.33333C24.6008 1.33333 31.1673 7.89982 31.1673 16C31.1673 24.1001 24.6008 30.6667 16.5007 30.6667C8.40048 30.6667 1.83398 24.1001 1.83398 16Z" fill="black"/>
<path d="M16.5007 22.6667C20.1825 22.6667 23.1673 19.6819 23.1673 16C23.1673 12.3181 20.1825 9.33333 16.5007 9.33333C12.8188 9.33333 9.83398 12.3181 9.83398 16C9.83398 19.6819 12.8188 22.6667 16.5007 22.6667Z" fill="white"/>
<path d="M17.1673 18.6667C19.0083 18.6667 20.5007 17.1743 20.5007 15.3333C20.5007 13.4924 19.0083 12 17.1673 12C15.3264 12 13.834 13.4924 13.834 15.3333C13.834 17.1743 15.3264 18.6667 17.1673 18.6667Z" fill="#FFD700"/>
</svg>
